<svg viewBox="0 0 125 38" fill="none" xmlns="http://www.w3.org/2000/svg">
<path d="M79.0005 16.4215C95.2237 -2.8826 104.843 -2.73172 122.806 16.4215" stroke="white" stroke-width="1.5"/>
<path d="M79.0005 15.2217V26.023L82.901 31.1236L86.8014 36.2242H101.203" stroke="white" stroke-width="2.5"/>
<path d="M122.806 15.2217V26.023L118.905 31.1236L115.005 36.2242H100.603" stroke="white" stroke-width="2.5"/>
<path d="M79.0005 18.2217H122.806" stroke="white"/>
<path d="M79.0005 22.4224H122.806" stroke="white"/>
<path d="M79.0005 26.623H122.806" stroke="white"/>
<path d="M82.001 30.8232L120.406 30.8232" stroke="white"/>
<rect width="9.24335" height="18.6662" transform="matrix(0.955169 0.296061 -0.22566 0.974206 4.43848 16.4131)" fill="#3F3D56"/>
<ellipse rx="4.62168" ry="6.99983" transform="matrix(0.955169 0.296061 -0.22566 0.974206 9.11615 16.6441)" fill="#3F3D56"/>
<rect width="4.62168" height="15.1663" transform="matrix(0.955169 0.296061 -0.22566 0.974206 10.332 1.18457)" fill="#3F3D56"/>
<rect width="9.24335" height="11.6664" transform="matrix(0.955169 0.296061 -0.22566 0.974206 4.17529 17.5479)" fill="#DB1E1E"/>
<rect width="4.62168" height="2.33328" transform="matrix(0.955169 0.296061 -0.22566 0.974206 9.80518 3.45801)" fill="#DB1E1E"/>
<path d="M53.8688 28.1312C52.8925 29.1075 51.3096 29.1075 50.3333 28.1312V28.1312C49.357 27.1548 49.357 25.5719 50.3333 24.5956L58.465 16.4639L62.0006 19.9994L53.8688 28.1312Z" fill="white"/>
<rect x="32.0005" y="21.4995" width="5" height="28" rx="2.5" transform="rotate(-90 32.0005 21.4995)" fill="white"/>
<path d="M50.3332 13.4035C49.3569 12.4272 49.3569 10.8443 50.3332 9.86798V9.86798C51.3095 8.89166 52.8924 8.89166 53.8688 9.86798L62.0005 17.9997L58.465 21.5352L50.3332 13.4035Z" fill="white"/>
<rect x="60.0005" y="17.9995" width="2" height="2" fill="white"/>
</svg>
