<svg width="978" height="389" viewBox="0 0 978 389" fill="none" xmlns="http://www.w3.org/2000/svg">
<g id="main-theme">
<path id="floor" opacity="0.1" d="M973.999 312.439C979 313.197 979.889 321.732 969.736 324.847C932.23 336.161 894.158 347.574 853.866 351.457C778.246 358.74 700.144 339.019 625.807 351.289C563.527 361.559 439.015 358.583 378.169 372.598C349.877 379.112 367.484 374.703 335.771 382.423L324.741 384.178C321.063 384.145 316.124 388.012 264.764 386.634C234.651 385.826 190.53 390.704 161.01 386.634C67.8034 373.822 0.0368949 372.598 0.0368949 332.244C-5.47823 292.943 608.607 257.06 973.999 312.439Z" fill="#252223"/>
<g id="high-plant">
<path id="Vector" d="M225.39 286.61C225.39 286.61 234.666 255.1 223.648 231.911C218.964 222.214 217.552 211.258 219.624 200.69C220.646 195.68 222.124 190.774 224.041 186.034" stroke="#535461" stroke-width="2" stroke-miterlimit="10"/>
<path id="Vector_2" d="M217.187 171.357C217.187 175.219 224.209 186.413 224.209 186.413C224.209 186.413 231.232 175.212 231.232 171.357C231.066 169.618 230.258 168.002 228.966 166.827C227.673 165.651 225.988 165 224.241 165C222.494 165 220.809 165.651 219.517 166.827C218.224 168.002 217.416 169.618 217.25 171.357H217.187Z" fill="#6C63FF"/>
<path id="Vector_3" d="M205.629 192.747C207.735 195.992 219.674 201.589 219.674 201.589C219.674 201.589 219.456 188.386 217.356 185.149C216.274 183.773 214.717 182.85 212.99 182.562C211.262 182.275 209.49 182.642 208.02 183.594C206.55 184.545 205.489 186.011 205.044 187.704C204.599 189.398 204.802 191.196 205.615 192.747H205.629Z" fill="#6C63FF"/>
<path id="Vector_4" d="M206.134 229.299C209.582 231.041 222.728 229.84 222.728 229.84C222.728 229.84 215.874 218.555 212.426 216.813C211.599 216.302 210.674 215.969 209.711 215.833C208.748 215.698 207.768 215.764 206.832 216.028C205.896 216.291 205.025 216.746 204.274 217.364C203.523 217.982 202.909 218.749 202.469 219.616C202.03 220.484 201.776 221.433 201.723 222.404C201.67 223.375 201.819 224.346 202.161 225.256C202.503 226.167 203.03 226.996 203.709 227.692C204.388 228.388 205.204 228.935 206.106 229.299H206.134Z" fill="#6C63FF"/>
<path id="Vector_5" d="M212.742 256.869C215.846 259.166 229.006 260.205 229.006 260.205C229.006 260.205 224.161 247.923 221.057 245.626C219.56 244.731 217.785 244.424 216.075 244.766C214.365 245.108 212.843 246.073 211.806 247.475C210.768 248.877 210.29 250.614 210.463 252.349C210.636 254.085 211.448 255.693 212.742 256.862V256.869Z" fill="#6C63FF"/>
<path id="Vector_6" d="M234.336 202.34C231.569 205.029 218.662 207.817 218.662 207.817C218.662 207.817 221.822 195.001 224.589 192.312C225.951 191.213 227.675 190.663 229.421 190.769C231.168 190.875 232.812 191.629 234.032 192.884C235.252 194.139 235.959 195.804 236.015 197.553C236.072 199.302 235.473 201.009 234.336 202.34Z" fill="#6C63FF"/>
<path id="Vector_7" d="M241.682 234.679C238.233 236.42 225.087 235.219 225.087 235.219C225.087 235.219 231.941 223.934 235.389 222.193C236.217 221.682 237.141 221.348 238.104 221.213C239.067 221.078 240.047 221.144 240.983 221.407C241.919 221.671 242.79 222.126 243.541 222.743C244.292 223.361 244.907 224.128 245.346 224.995C245.785 225.863 246.039 226.812 246.092 227.783C246.145 228.754 245.996 229.725 245.655 230.636C245.313 231.546 244.786 232.375 244.107 233.071C243.427 233.767 242.611 234.315 241.71 234.679H241.682Z" fill="#6C63FF"/>
<path id="Vector_8" d="M244.484 267.087C241.38 269.384 228.22 270.423 228.22 270.423C228.22 270.423 233.065 258.141 236.169 255.844C237.665 254.949 239.441 254.642 241.151 254.984C242.861 255.326 244.383 256.291 245.42 257.693C246.457 259.095 246.936 260.832 246.763 262.567C246.59 264.302 245.777 265.911 244.484 267.08V267.087Z" fill="#6C63FF"/>
<path id="Vector_9" d="M246.976 285.592C246.976 285.592 230.017 282.2 225.495 277.678C220.972 273.155 200.621 265.241 198.36 270.894C196.099 276.547 167.833 295.768 187.054 299.159C206.274 302.551 232.278 303.682 237.925 301.421C243.571 299.159 246.976 285.592 246.976 285.592Z" fill="#A8A8A8"/>
<path id="Vector_10" opacity="0.2" d="M186.656 296.995C205.877 300.387 231.881 301.517 237.527 299.256C241.832 297.536 244.823 289.263 246.003 285.408L246.572 285.527C246.572 285.527 243.18 299.095 237.527 301.356C231.874 303.617 205.87 302.486 186.656 299.095C181.108 298.118 179.521 295.815 180.118 292.908C180.596 294.804 182.527 296.264 186.656 296.995Z" fill="black"/>
</g>
<g id="drone">
<g id="Robot-drone">
<path id="Vector_11" d="M595.944 82.3288C601.534 82.3288 606.066 77.797 606.066 72.2067C606.066 66.6163 601.534 62.0845 595.944 62.0845C590.354 62.0845 585.822 66.6163 585.822 72.2067C585.822 77.797 590.354 82.3288 595.944 82.3288Z" fill="#6C63FF"/>
<path id="Vector_12" d="M595.944 79.0359C599.715 79.0359 602.773 75.9785 602.773 72.2069C602.773 68.4354 599.715 65.3779 595.944 65.3779C592.172 65.3779 589.115 68.4354 589.115 72.2069C589.115 75.9785 592.172 79.0359 595.944 79.0359Z" fill="#6C63FF"/>
<path id="Vector_13" opacity="0.2" d="M595.944 79.0359C599.715 79.0359 602.773 75.9785 602.773 72.2069C602.773 68.4354 599.715 65.3779 595.944 65.3779C592.172 65.3779 589.115 68.4354 589.115 72.2069C589.115 75.9785 592.172 79.0359 595.944 79.0359Z" fill="#F5F5F5"/>
<path id="Vector_14" d="M595.944 76.6784C598.414 76.6784 600.416 74.6763 600.416 72.2066C600.416 69.737 598.414 67.7349 595.944 67.7349C593.474 67.7349 591.472 69.737 591.472 72.2066C591.472 74.6763 593.474 76.6784 595.944 76.6784Z" fill="#6C63FF"/>
<path id="Vector_15" opacity="0.25" d="M595.944 76.6784C598.414 76.6784 600.416 74.6763 600.416 72.2066C600.416 69.737 598.414 67.7349 595.944 67.7349C593.474 67.7349 591.472 69.737 591.472 72.2066C591.472 74.6763 593.474 76.6784 595.944 76.6784Z" fill="black"/>
<path id="Vector_16" d="M580.166 57.1378C580.166 57.1378 566.513 69.1517 568.395 92.922C568.395 92.922 570.044 95.9824 574.283 92.922C574.283 92.922 570.752 62.7832 594.295 57.1328L580.166 57.1378Z" fill="#6C63FF"/>
<path id="Vector_17" d="M611.717 57.1378C611.717 57.1378 625.375 69.1517 623.508 92.922C623.508 92.922 621.859 95.9824 617.62 92.922C617.62 92.922 621.15 62.7832 597.608 57.1328L611.717 57.1378Z" fill="#6C63FF"/>
<path id="Vector_18" d="M604.357 36.6504H585.876C579.536 36.6504 574.397 41.7897 574.397 48.1295C574.397 54.4692 579.536 59.6085 585.876 59.6085H604.357C610.697 59.6085 615.837 54.4692 615.837 48.1295C615.837 41.7897 610.697 36.6504 604.357 36.6504Z" fill="#6C63FF"/>
<path id="Vector_19" d="M581.187 54.4038L548.854 53.4976C547.592 53.4627 546.393 52.9366 545.512 52.0312C544.632 51.1257 544.139 49.9124 544.14 48.6494V47.4114C544.14 46.1633 544.621 44.9633 545.483 44.0612C546.346 43.159 547.523 42.6243 548.77 42.5682L581.102 41.1172C581.757 41.0878 582.41 41.1912 583.024 41.4213C583.637 41.6515 584.197 42.0035 584.671 42.4561C585.144 42.9087 585.521 43.4526 585.778 44.0549C586.036 44.6572 586.168 45.3054 586.169 45.9604V49.5606C586.168 50.2083 586.038 50.8493 585.786 51.4458C585.533 52.0423 585.164 52.5822 584.7 53.0337C584.235 53.4852 583.685 53.839 583.082 54.0743C582.479 54.3096 581.834 54.4217 581.187 54.4038Z" fill="#6C63FF"/>
<path id="Vector_20" d="M610.464 54.4038L642.796 53.4976C644.059 53.4627 645.258 52.9366 646.138 52.0312C647.019 51.1257 647.511 49.9124 647.511 48.6494V47.4114C647.511 46.1633 647.029 44.9633 646.167 44.0612C645.305 43.159 644.127 42.6243 642.881 42.5682L610.548 41.1172C609.894 41.0878 609.24 41.1912 608.627 41.4213C608.014 41.6515 607.453 42.0035 606.98 42.4561C606.506 42.9087 606.13 43.4526 605.872 44.0549C605.615 44.6572 605.482 45.3054 605.482 45.9604V49.5606C605.482 50.2083 605.613 50.8493 605.865 51.4458C606.117 52.0423 606.486 52.5822 606.951 53.0337C607.415 53.4852 607.965 53.839 608.569 54.0743C609.172 54.3096 609.816 54.4217 610.464 54.4038Z" fill="#6C63FF"/>
<path id="Vector_21" opacity="0.2" d="M581.187 54.4038L548.854 53.4976C547.592 53.4627 546.393 52.9366 545.512 52.0312C544.632 51.1257 544.139 49.9124 544.14 48.6494V47.4114C544.14 46.1633 544.621 44.9633 545.483 44.0612C546.346 43.159 547.523 42.6243 548.77 42.5682L581.102 41.1172C581.757 41.0878 582.41 41.1912 583.024 41.4213C583.637 41.6515 584.197 42.0035 584.671 42.4561C585.144 42.9087 585.521 43.4526 585.778 44.0549C586.036 44.6572 586.168 45.3054 586.169 45.9604V49.5606C586.168 50.2083 586.038 50.8493 585.786 51.4458C585.533 52.0423 585.164 52.5822 584.7 53.0337C584.235 53.4852 583.685 53.839 583.082 54.0743C582.479 54.3096 581.834 54.4217 581.187 54.4038Z" fill="#F5F5F5"/>
<path id="Vector_22" opacity="0.2" d="M610.464 54.4038L642.796 53.4976C644.059 53.4627 645.258 52.9366 646.138 52.0312C647.019 51.1257 647.511 49.9124 647.511 48.6494V47.4114C647.511 46.1633 647.029 44.9633 646.167 44.0612C645.305 43.159 644.127 42.6243 642.881 42.5682L610.548 41.1172C609.894 41.0878 609.24 41.1912 608.627 41.4213C608.014 41.6515 607.453 42.0035 606.98 42.4561C606.506 42.9087 606.13 43.4526 605.872 44.0549C605.615 44.6572 605.482 45.3054 605.482 45.9604V49.5606C605.482 50.2083 605.613 50.8493 605.865 51.4458C606.117 52.0423 606.486 52.5822 606.951 53.0337C607.415 53.4852 607.965 53.839 608.569 54.0743C609.172 54.3096 609.816 54.4217 610.464 54.4038Z" fill="#F5F5F5"/>
<path id="Vector_23" d="M541.203 40.4189H539.786C536.731 40.4189 534.255 42.8955 534.255 45.9505V48.7782C534.255 51.8332 536.731 54.3097 539.786 54.3097H541.203C544.258 54.3097 546.734 51.8332 546.734 48.7782V45.9505C546.734 42.8955 544.258 40.4189 541.203 40.4189Z" fill="#6C63FF"/>
<path id="Vector_24" d="M652.101 40.4189H650.685C647.63 40.4189 645.153 42.8955 645.153 45.9505V48.7782C645.153 51.8332 647.63 54.3097 650.685 54.3097H652.101C655.156 54.3097 657.633 51.8332 657.633 48.7782V45.9505C657.633 42.8955 655.156 40.4189 652.101 40.4189Z" fill="#6C63FF"/>
<path id="Vector_25" d="M542.495 37.3584H538.727C537.687 37.3584 536.845 38.2009 536.845 39.2402V39.2452C536.845 40.2845 537.687 41.127 538.727 41.127H542.495C543.534 41.127 544.377 40.2845 544.377 39.2452V39.2402C544.377 38.2009 543.534 37.3584 542.495 37.3584Z" fill="#6C63FF"/>
<path id="Vector_26" d="M543.204 33.8277C543.204 32.266 541.939 31 540.378 31C538.818 31 537.553 32.266 537.553 33.8277V36.6504C537.553 38.2121 538.818 39.4781 540.378 39.4781C541.939 39.4781 543.204 38.2121 543.204 36.6504V33.8277Z" fill="#6C63FF"/>
<path id="Vector_27" d="M525.777 37.3582C534.491 37.3582 541.555 36.4092 541.555 35.2387C541.555 34.0681 534.491 33.1191 525.777 33.1191C517.063 33.1191 510 34.0681 510 35.2387C510 36.4092 517.063 37.3582 525.777 37.3582Z" fill="#6C63FF"/>
<path id="Vector_28" d="M554.975 37.3582C563.688 37.3582 570.752 36.4092 570.752 35.2387C570.752 34.0681 563.688 33.1191 554.975 33.1191C546.261 33.1191 539.197 34.0681 539.197 35.2387C539.197 36.4092 546.261 37.3582 554.975 37.3582Z" fill="#6C63FF"/>
<path id="Vector_29" d="M653.626 37.3584H649.858C648.819 37.3584 647.976 38.2009 647.976 39.2402V39.2452C647.976 40.2845 648.819 41.127 649.858 41.127H653.626C654.666 41.127 655.508 40.2845 655.508 39.2452V39.2402C655.508 38.2009 654.666 37.3584 653.626 37.3584Z" fill="#6C63FF"/>
<path id="Vector_30" d="M654.335 33.8277C654.335 32.266 653.07 31 651.51 31C649.949 31 648.685 32.266 648.685 33.8277V36.6504C648.685 38.2121 649.949 39.4781 651.51 39.4781C653.07 39.4781 654.335 38.2121 654.335 36.6504V33.8277Z" fill="#6C63FF"/>
<path id="Vector_31" d="M636.913 37.3582C645.626 37.3582 652.69 36.4092 652.69 35.2387C652.69 34.0681 645.626 33.1191 636.913 33.1191C628.199 33.1191 621.135 34.0681 621.135 35.2387C621.135 36.4092 628.199 37.3582 636.913 37.3582Z" fill="#6C63FF"/>
<path id="Vector_32" d="M666.106 37.3582C674.819 37.3582 681.883 36.4092 681.883 35.2387C681.883 34.0681 674.819 33.1191 666.106 33.1191C657.392 33.1191 650.328 34.0681 650.328 35.2387C650.328 36.4092 657.392 37.3582 666.106 37.3582Z" fill="#6C63FF"/>
<path id="Vector_33" opacity="0.2" d="M525.777 37.3582C534.491 37.3582 541.555 36.4092 541.555 35.2387C541.555 34.0681 534.491 33.1191 525.777 33.1191C517.063 33.1191 510 34.0681 510 35.2387C510 36.4092 517.063 37.3582 525.777 37.3582Z" fill="#F5F5F5"/>
<path id="Vector_34" opacity="0.2" d="M554.975 37.3582C563.688 37.3582 570.752 36.4092 570.752 35.2387C570.752 34.0681 563.688 33.1191 554.975 33.1191C546.261 33.1191 539.197 34.0681 539.197 35.2387C539.197 36.4092 546.261 37.3582 554.975 37.3582Z" fill="#F5F5F5"/>
<path id="Vector_35" opacity="0.2" d="M636.913 37.3582C645.626 37.3582 652.69 36.4092 652.69 35.2387C652.69 34.0681 645.626 33.1191 636.913 33.1191C628.199 33.1191 621.135 34.0681 621.135 35.2387C621.135 36.4092 628.199 37.3582 636.913 37.3582Z" fill="#F5F5F5"/>
<path id="Vector_36" opacity="0.2" d="M666.106 37.3582C674.819 37.3582 681.883 36.4092 681.883 35.2387C681.883 34.0681 674.819 33.1191 666.106 33.1191C657.392 33.1191 650.328 34.0681 650.328 35.2387C650.328 36.4092 657.392 37.3582 666.106 37.3582Z" fill="#F5F5F5"/>
<path id="Vector_37" d="M601.594 55.2505H590.293C588.212 55.2505 586.525 56.9366 586.525 59.0166C586.525 61.0966 588.212 62.7827 590.293 62.7827H601.594C603.676 62.7827 605.363 61.0966 605.363 59.0166C605.363 56.9366 603.676 55.2505 601.594 55.2505Z" fill="#6C63FF"/>
<path id="Vector_38" opacity="0.2" d="M601.594 55.2505H590.293C588.212 55.2505 586.525 56.9366 586.525 59.0166C586.525 61.0966 588.212 62.7827 590.293 62.7827H601.594C603.676 62.7827 605.363 61.0966 605.363 59.0166C605.363 56.9366 603.676 55.2505 601.594 55.2505Z" fill="#F5F5F5"/>
<path id="Vector_39" d="M613.043 94.3872H571.094V136.337H613.043H623.76V94.3872H613.043Z" fill="#67647E"/>
<path id="Vector_40" opacity="0.25" d="M623.765 94.3872H613.043V136.337H623.765V94.3872Z" fill="black"/>
</g>
<g id="cart-bottle">
<rect id="Rectangle 69" width="7.0836" height="14.3048" transform="matrix(0.955169 0.296061 -0.22566 0.974206 603.414 113.515)" fill="#3F3D56"/>
<ellipse id="Ellipse 19" rx="3.5418" ry="5.36429" transform="matrix(0.955169 0.296061 -0.22566 0.974206 606.998 113.692)" fill="#3F3D56"/>
<rect id="Rectangle 70" width="3.5418" height="11.6226" transform="matrix(0.955169 0.296061 -0.22566 0.974206 607.93 101.845)" fill="#3F3D56"/>
<rect id="Rectangle 71" width="7.0836" height="8.94048" transform="matrix(0.955169 0.296061 -0.22566 0.974206 603.211 114.385)" fill="#DB1E1E"/>
<rect id="Rectangle 72" width="3.5418" height="1.7881" transform="matrix(0.955169 0.296061 -0.22566 0.974206 607.526 103.587)" fill="#DB1E1E"/>
</g>
<g id="cart-bottle_2">
<rect id="Rectangle 69_2" width="7.0836" height="14.3048" transform="matrix(0.955169 0.296061 -0.22566 0.974206 582.063 113.515)" fill="#3F3D56"/>
<ellipse id="Ellipse 19_2" rx="3.5418" ry="5.36429" transform="matrix(0.955169 0.296061 -0.22566 0.974206 585.648 113.692)" fill="#3F3D56"/>
<rect id="Rectangle 70_2" width="3.5418" height="11.6226" transform="matrix(0.955169 0.296061 -0.22566 0.974206 586.579 101.845)" fill="#3F3D56"/>
<rect id="Rectangle 71_2" width="7.0836" height="8.94048" transform="matrix(0.955169 0.296061 -0.22566 0.974206 581.861 114.385)" fill="#DB1E1E"/>
<rect id="Rectangle 72_2" width="3.5418" height="1.7881" transform="matrix(0.955169 0.296061 -0.22566 0.974206 586.175 103.587)" fill="#DB1E1E"/>
</g>
<g id="cart-bottle_3">
<rect id="Rectangle 69_3" width="7.0836" height="14.3048" transform="matrix(0.955169 0.296061 -0.22566 0.974206 593.043 113.515)" fill="#3F3D56"/>
<ellipse id="Ellipse 19_3" rx="3.5418" ry="5.36429" transform="matrix(0.955169 0.296061 -0.22566 0.974206 596.628 113.692)" fill="#3F3D56"/>
<rect id="Rectangle 70_3" width="3.5418" height="11.6226" transform="matrix(0.955169 0.296061 -0.22566 0.974206 597.559 101.845)" fill="#3F3D56"/>
<rect id="Rectangle 71_3" width="7.0836" height="8.94048" transform="matrix(0.955169 0.296061 -0.22566 0.974206 592.841 114.385)" fill="#DB1E1E"/>
<rect id="Rectangle 72_3" width="3.5418" height="1.7881" transform="matrix(0.955169 0.296061 -0.22566 0.974206 597.155 103.587)" fill="#DB1E1E"/>
</g>
</g>
<g id="street-light">
<path id="Vector_41" opacity="0.1" d="M933.488 320.675C948.669 320.675 960.976 318.597 960.976 316.034C960.976 313.472 948.669 311.394 933.488 311.394C918.306 311.394 906 313.472 906 316.034C906 318.597 918.306 320.675 933.488 320.675Z" fill="black"/>
<path id="Vector_42" opacity="0.1" d="M945.317 118.52L945.277 118.299L941.496 116.296H940.903L940.676 115.861H932.885L931.078 116.296H924.423L922.62 118.4L922.602 118.529C922.485 119.282 919.878 136.975 926.757 142.605L929.626 143.938H931.481L931.118 143.214L932.731 143.938H937.952L938.045 143.799L941.143 142.639L941.223 142.547C941.503 142.215 948.087 134.214 945.317 118.52Z" fill="#6C63FF"/>
<path id="Vector_43" d="M935.956 136.106H932.885V144.091H935.956V136.106Z" fill="#E6E6E6"/>
<path id="Vector_44" d="M937.03 154.38H931.502V307.944H937.03V154.38Z" fill="#3F3D56"/>
<path id="Vector_45" d="M938.413 151.77H930.12V156.991H938.413V151.77Z" fill="#3F3D56"/>
<path id="Vector_46" d="M927.049 142.249L932.27 147.777L930.12 151.77L934.42 152.691L938.413 151.77L935.956 147.47L940.87 142.249H927.049Z" fill="#3F3D56"/>
<path id="Vector_47" d="M923.056 120.6L920.599 118.143L922.442 116.3H945.784L947.626 118.45L944.862 120.6C944.862 120.6 930.12 119.985 923.056 120.6Z" fill="#3F3D56"/>
<path id="Vector_48" d="M945.317 118.52L945.277 118.299L941.496 116.297L939.77 115.381L930.08 114.758L924.647 116.035L924.423 116.297L922.62 118.4L922.602 118.529C922.485 119.282 919.878 136.976 926.757 142.605L929.626 143.938L932.04 145.059L931.481 143.938L930.563 142.105C929.601 136.509 927.488 121.806 928.837 118.735L934.408 116.938L939.353 118.775C939.694 120.983 941.899 136.466 938.035 141.985L937.952 142.105V143.834L941.143 142.639L941.223 142.547C941.503 142.215 948.087 134.214 945.317 118.52ZM940.587 141.862L938.874 142.507V142.39C943.112 136.066 940.342 119.085 940.222 118.36L940.179 118.096L935.332 116.297L934.433 115.962L933.394 116.297L928.198 117.973L928.109 118.13C926.134 121.671 929.522 141.484 929.666 142.326L929.678 142.393L930.044 143.124L927.295 141.856C921.168 136.754 923.268 120.418 923.493 118.8L925.151 116.865L927.565 116.297L930.16 115.685L934.432 115.962L939.512 116.29L939.525 116.297L944.448 118.901C946.887 133.136 941.291 140.953 940.587 141.862Z" fill="#3F3D56"/>
<path id="Vector_49" d="M934.42 120.6C939 120.6 942.712 118.675 942.712 116.3C942.712 113.925 939 112 934.42 112C929.84 112 926.127 113.925 926.127 116.3C926.127 118.675 929.84 120.6 934.42 120.6Z" fill="#3F3D56"/>
<path id="Vector_50" d="M930.12 300.113L925.206 315.776C925.206 315.776 932.884 320.076 943.327 315.776L938.413 300.113H930.12Z" fill="#3F3D56"/>
<path id="light" d="M934.42 137.027C935.777 137.027 936.877 135.927 936.877 134.57C936.877 133.213 935.777 132.113 934.42 132.113C933.063 132.113 931.963 133.213 931.963 134.57C931.963 135.927 933.063 137.027 934.42 137.027Z" fill="#6C63FF"/>
</g>
<g id="thinker">
<path id="Vector_51" d="M731.097 223.087H725.201V266.321H731.097V223.087Z" fill="#3F3D56"/>
<path id="Vector_52" d="M800.663 223.087H794.767V266.321H800.663V223.087Z" fill="#3F3D56"/>
<path id="Vector_53" d="M870.229 216.405H655.635V226.231H870.229V216.405Z" fill="#E6E6E6"/>
<path id="Vector_54" d="M870.229 247.455H655.635V257.281H870.229V247.455Z" fill="#E6E6E6"/>
<path id="Vector_55" d="M870.229 229.375H655.635V235.271H870.229V229.375Z" fill="#E6E6E6"/>
<path id="Vector_56" d="M870.229 238.416H655.635V244.311H870.229V238.416Z" fill="#E6E6E6"/>
<path id="Vector_57" d="M661.726 214.637H655.045V266.517H661.726V214.637Z" fill="#3F3D56"/>
<path id="Vector_58" d="M870.229 214.44H863.547V266.32H870.229V214.44Z" fill="#3F3D56"/>
<path id="Vector_59" d="M643.451 280.076H636.769V333.921H643.451V280.076Z" fill="#3F3D56"/>
<path id="Vector_60" d="M665.46 278.111H658.779V306.803H665.46V278.111Z" fill="#3F3D56"/>
<path id="Vector_61" d="M868.657 278.111H861.975V306.803H868.657V278.111Z" fill="#3F3D56"/>
<path id="Vector_62" d="M887.522 280.076H880.841V333.921H887.522V280.076Z" fill="#3F3D56"/>
<path id="Vector_63" d="M887.522 280.076H636.769V287.151H887.522V280.076Z" fill="#3F3D56"/>
<path id="Vector_64" d="M654.848 264.355L636.769 280.077H887.522L870.229 264.355H654.848Z" fill="#E6E6E6"/>
<path id="Vector_65" d="M707.243 201.203C708.356 200.411 709.584 199.795 710.884 199.377C719.127 196.31 727.764 194.43 736.537 193.793C744.164 193.252 752.431 193.894 758.389 198.688C759.316 199.368 760.074 200.252 760.606 201.271C761.355 202.888 761.128 204.768 760.885 206.534C760.831 207.219 760.658 207.89 760.375 208.516C759.573 210.042 757.599 210.577 755.885 210.394C754.171 210.211 752.562 209.485 750.871 209.149C749.824 208.967 748.766 208.859 747.704 208.826L737.098 208.252C730.503 207.895 723.821 207.544 717.352 208.875C715.36 209.233 713.436 209.896 711.647 210.841C710.169 211.671 709.174 212.861 707.803 211.329C705.395 208.637 704.061 203.689 707.243 201.203Z" fill="#2F2E41"/>
<path id="Vector_66" d="M723.678 205.893C723.678 205.893 737.944 199.498 743.355 206.877C748.765 214.255 740.403 211.304 740.403 211.304L731.057 214.255L720.727 212.288L723.678 205.893Z" fill="#F2F2F2"/>
<path id="Vector_67" d="M724.416 201.22C724.416 201.22 726.384 210.566 724.908 213.025C723.432 215.485 733.27 218.928 733.27 218.928L742.616 214.993C742.616 214.993 740.157 199.744 742.616 196.792L724.416 201.22Z" fill="#FFB9B9"/>
<path id="Vector_68" opacity="0.1" d="M724.416 201.22C724.416 201.22 726.384 210.566 724.908 213.025C723.432 215.485 733.27 218.928 733.27 218.928L742.616 214.993C742.616 214.993 740.157 199.744 742.616 196.792L724.416 201.22Z" fill="black"/>
<path id="Vector_69" d="M715.199 313.6C716.606 316.299 717.518 319.222 718.449 322.119C718.463 322.216 718.497 322.308 718.549 322.391C718.601 322.473 718.67 322.544 718.751 322.598C718.833 322.652 718.925 322.688 719.021 322.705C719.117 322.721 719.216 322.716 719.31 322.692L728.06 322.682C729.14 322.681 730.588 322.334 730.577 321.254C730.569 320.495 729.794 320.022 729.217 319.53C727.615 318.163 727.198 315.91 726.535 313.912C725.245 310.062 722.76 306.725 719.442 304.386C718.994 304.035 718.477 303.78 717.926 303.637C717.371 303.556 716.806 303.587 716.264 303.727C714.728 304.037 708.992 305.097 710.076 307.331C710.542 308.293 712.271 309.294 712.996 310.193C713.841 311.253 714.579 312.395 715.199 313.6Z" fill="#575A89"/>
<path id="Vector_70" d="M745.624 303.453C745.316 304.101 744.973 304.732 744.596 305.344C743.328 307.434 741.832 309.384 740.652 311.525C739.916 312.861 739.296 314.304 739.215 315.827C739.133 317.35 739.67 318.971 740.884 319.893C742.155 320.856 743.896 320.901 745.474 320.676C747.053 320.452 748.622 320 750.212 320.119C749.676 317.085 752.235 314.415 752.875 311.402C753.054 310.556 753.081 309.678 753.322 308.847C753.581 308.087 753.913 307.354 754.312 306.657C755.586 304.176 756.486 301.521 756.984 298.776C757.044 298.444 749.207 298.389 748.471 298.548C746.177 299.044 746.513 301.55 745.624 303.453Z" fill="#575A89"/>
<path id="Vector_71" d="M685.214 255.796C682.976 259.297 683.492 263.938 685.063 267.784C686.635 271.631 689.136 275.032 690.848 278.818C691.939 281.232 692.705 283.791 693.934 286.138C695.455 289.044 697.677 291.606 698.699 294.723C699.349 296.71 699.499 298.888 700.553 300.694C701.191 301.659 701.918 302.562 702.726 303.389C704.997 305.991 706.702 309.037 707.733 312.334C708.697 309.463 711.583 307.58 714.547 306.959C717.511 306.339 720.582 306.76 723.581 307.184C721.908 304.593 720.219 301.968 719.222 299.05C718.258 296.227 717.973 293.224 717.324 290.312C715.992 284.342 713.146 278.835 710.329 273.406L724.809 272.257C727.172 272.019 729.548 271.931 731.923 271.993C735.66 272.169 739.322 273.085 743.039 273.509C746.757 273.932 750.69 273.822 754.003 272.083C747.668 281.172 744.368 292.032 744.577 303.11C745.992 302.012 747.636 301.246 749.386 300.866C751.137 300.486 752.95 300.502 754.693 300.914C756.437 301.325 758.066 302.121 759.462 303.244C760.858 304.366 761.985 305.787 762.761 307.401C768.436 299.646 767.761 288.851 772.257 280.359C773.182 278.613 774.315 276.986 775.313 275.281C777.287 271.908 778.718 268.251 780.141 264.611C781.399 261.394 782.666 257.815 781.46 254.578C780.959 253.35 780.229 252.228 779.31 251.272C776.716 248.412 773.105 246.296 769.244 246.208C763.317 246.073 758.422 250.466 753.223 253.314C747.099 256.67 739.956 258.003 732.991 257.51C725.85 257.005 719.03 254.667 712.226 252.608C708.823 251.531 705.363 250.638 701.863 249.935C698.946 249.388 696.167 249.994 693.292 250.74C690.162 251.553 687.015 252.976 685.214 255.796Z" fill="#2F2E41"/>
<path id="Vector_72" d="M747.044 191.873C747.04 195.786 745.485 199.538 742.718 202.305C739.951 205.071 736.199 206.627 732.287 206.63C731.407 206.632 730.53 206.553 729.665 206.394C726.903 205.895 724.341 204.62 722.279 202.716C720.216 200.813 718.74 198.361 718.022 195.648C717.304 192.935 717.374 190.073 718.225 187.399C719.076 184.724 720.672 182.348 722.826 180.549C724.979 178.749 727.601 177.601 730.384 177.239C733.167 176.878 735.996 177.317 738.538 178.505C741.08 179.694 743.231 181.583 744.737 183.951C746.244 186.319 747.044 189.067 747.044 191.873V191.873Z" fill="#FFB9B9"/>
<path id="Vector_73" d="M723.678 205.892C723.678 205.892 726.384 207.122 727.367 208.106C728.351 209.09 731.303 214.501 736.222 211.057C741.141 207.614 741.633 205.646 743.108 205.646C744.584 205.646 746.552 208.598 746.552 208.598L760.079 249.18C756.433 253.295 752.208 256.858 747.535 259.756C739.665 264.675 730.319 267.134 725.892 265.167C721.465 263.199 713.102 261.723 711.627 257.788C710.151 253.853 707.691 242.047 707.691 242.047L714.578 212.041L723.678 205.892Z" fill="#F2F2F2"/>
<path id="Vector_74" d="M721.779 246.936C722.851 244.62 723.007 241.998 723.098 239.446C723.243 236.92 723.176 234.386 722.898 231.87C722.462 228.58 721.39 225.41 720.714 222.16C720.12 219.31 719.832 216.405 719.853 213.494C719.863 212.166 719.959 210.768 720.683 209.654C721.188 208.877 721.978 208.275 722.294 207.404C722.912 205.695 721.384 203.906 719.708 203.203C717.715 202.366 715.437 202.422 713.341 202.947C711.244 203.472 709.288 204.438 707.351 205.398C705.952 206.09 704.523 206.805 703.438 207.927C701.911 209.508 701.239 211.708 700.697 213.838C700.263 215.542 699.877 217.319 700.208 219.046C700.744 221.852 703.03 223.961 704.249 226.544C705.665 229.543 705.57 233.038 705.007 236.306C704.444 239.574 703.444 242.769 703.136 246.071C702.828 249.373 703.301 252.923 705.37 255.515C706.213 256.571 708.499 259.074 710.043 258.791C711.255 258.568 713.013 255.9 713.99 255.054C716.811 252.61 720.159 250.436 721.779 246.936Z" fill="#2F2E41"/>
<path id="Vector_75" d="M747.551 204.289C747.594 207.032 746.385 209.64 744.962 211.987C743.54 214.333 741.87 216.552 740.822 219.088C739.519 222.262 739.253 225.767 740.062 229.101C740.362 230.237 740.725 231.356 741.147 232.452L743.842 239.845C744.205 241.007 744.731 242.112 745.405 243.126C746.014 243.903 746.729 244.59 747.529 245.169C749.576 246.822 751.932 248.051 754.459 248.785C756.995 249.455 759.77 249.413 762.165 248.345C762.425 238.323 764.035 228.382 766.952 218.791C767.491 217.02 768.08 215.156 767.664 213.353C767.199 211.332 765.576 209.816 764.033 208.431C759.316 204.195 754.129 199.745 747.815 199.174C744.16 198.843 747.52 202.305 747.551 204.289Z" fill="#2F2E41"/>
<path id="Vector_76" d="M715.27 261.479C715.645 262.211 715.877 263.009 716.247 263.743C716.793 264.728 717.468 265.636 718.255 266.442C721.543 270.089 725.564 273.722 730.47 273.942C730.957 273.988 731.449 273.926 731.91 273.761C732.768 273.404 733.275 272.485 733.442 271.57C733.79 269.665 732.949 267.765 732.107 266.021C730.282 262.241 728.229 258.366 724.812 255.928C721.444 253.525 716.932 252.942 713.004 254.152C711.224 254.7 708.273 255.657 710.63 257.281C712.417 258.513 714.234 259.451 715.27 261.479Z" fill="#FFB9B9"/>
<path id="Vector_77" d="M736.478 213.361C735.877 212.018 735.249 210.637 734.17 209.638C733.149 208.776 731.942 208.164 730.643 207.852C728.961 207.371 727.22 207.122 725.47 207.111C723.387 207.098 720.971 207.656 720.087 209.543C719.384 211.04 719.929 212.814 720.636 214.309C720.938 215.084 721.442 215.764 722.094 216.279C722.993 216.886 724.155 216.867 725.22 217.07C726.89 217.389 728.384 218.284 729.839 219.164L733.488 221.369L739.755 225.157C739.59 225.058 739.649 220.76 739.456 220.055C738.836 217.786 737.44 215.509 736.478 213.361Z" fill="#FFB9B9"/>
<path id="Vector_78" d="M718.221 321.006C716.755 322.999 717.049 325.847 715.75 327.953C714.624 329.779 712.502 330.736 711.093 332.353C710.644 332.89 710.243 333.467 709.896 334.075C708.589 336.264 707.527 339.069 708.814 341.269C709.849 343.039 712.025 343.73 714.021 344.202C716.543 344.798 719.163 345.275 721.714 344.819C724.266 344.364 726.759 342.802 727.669 340.375C727.847 339.765 728.06 339.165 728.305 338.579C729.688 335.856 734.025 335.827 735.441 333.121C736.431 331.228 735.521 328.939 734.61 327.006L731.831 321.101C730.909 319.141 727.17 320.268 725.22 319.799C722.678 319.186 720.05 318.512 718.221 321.006Z" fill="#2F2E41"/>
<path id="Vector_79" d="M739.719 315.933C738.54 316.76 737.777 318.057 737.205 319.378C735.829 322.552 735.357 326.031 734.898 329.459C734.714 330.832 734.531 332.238 734.818 333.594C735.411 336.393 737.948 338.455 740.679 339.311C743.41 340.167 746.339 340.035 749.197 339.895C750.115 339.85 751.07 339.795 751.874 339.351C753.311 338.559 753.872 336.697 753.626 335.075C753.38 333.454 752.494 332.011 751.626 330.618C750.759 329.226 749.872 327.784 749.624 326.162C749.206 323.434 750.385 319.431 748.709 316.963C747.03 314.49 741.96 314.362 739.719 315.933Z" fill="#2F2E41"/>
<path id="Vector_80" d="M746.672 184.183C746.41 183.3 745.831 182.545 745.048 182.062C745.088 181.117 744.972 180.171 744.705 179.264C743.811 176.622 741.694 176.773 739.696 175.605C738.83 175.098 738.883 174.65 738.432 173.818C737.841 172.727 736.955 171.823 735.876 171.21C734.595 170.394 733.242 169.553 731.726 169.45C728.54 169.233 726.097 172.229 723.052 173.191C721.71 173.615 720.268 173.632 718.918 174.033C717.569 174.434 716.223 175.391 716.022 176.784C715.929 177.427 716.093 178.087 715.999 178.73C715.811 180.008 714.69 180.903 713.94 181.954C712.28 184.278 712.47 187.562 713.797 190.091C714.077 190.614 714.397 191.115 714.754 191.589C714.865 192.784 715.208 193.946 715.765 195.01C717.092 197.539 719.376 199.429 721.762 200.999C721.566 200.16 721.448 199.306 721.408 198.445C721.374 198.159 721.411 197.868 721.516 197.599C721.782 197.044 722.484 196.896 723.02 196.592C724.128 195.962 724.563 194.567 724.595 193.292C724.627 192.018 724.357 190.741 724.491 189.472C724.496 189.181 724.562 188.893 724.685 188.629C724.808 188.364 724.985 188.129 725.205 187.937C725.614 187.703 726.082 187.592 726.552 187.616C728.824 187.523 731.198 187.481 733.202 186.407C733.885 186.04 734.521 185.556 735.271 185.36C736.974 184.916 738.715 186.11 739.696 187.57C740.677 189.031 741.167 190.77 742.072 192.279C742.978 193.788 744.542 195.133 746.293 194.955C746.391 194.955 746.489 194.934 746.579 194.894C746.669 194.854 746.75 194.795 746.816 194.722C746.891 194.586 746.925 194.431 746.912 194.277L747.01 187.584C747.091 186.44 746.977 185.289 746.672 184.183Z" fill="#2F2E41"/>
<path id="Vector_81" d="M699.971 219.189C698.563 221.266 696.939 223.263 696.166 225.65C695.711 227.054 695.569 228.537 695.24 229.974C694.143 234.763 690.974 239.016 690.656 243.919C690.544 245.008 690.704 246.108 691.121 247.121C692.03 249.098 694.206 250.14 696.281 250.796C698.357 251.451 700.585 251.924 702.242 253.335C703.076 254.135 703.832 255.011 704.5 255.954C707.203 259.315 710.839 261.803 714.951 263.104C714.626 260.865 714.473 258.168 716.263 256.784C717.231 256.035 718.525 255.902 719.745 255.797L725.509 255.298C721.665 251.571 717.429 248.271 712.874 245.456C711.281 244.472 709.546 243.433 708.818 241.707C708.363 240.628 708.369 239.419 708.359 238.248C708.319 233.962 707.956 229.684 707.273 225.452C706.798 222.514 706.17 219.602 705.452 216.713C705.25 215.903 704.058 212.265 702.59 213.116C702.245 213.317 701.921 215.624 701.719 216.103C701.239 217.186 700.653 218.22 699.971 219.189Z" fill="#2F2E41"/>
<path id="Vector_82" d="M766.353 211.34L768.707 216.235C769.841 218.247 770.357 220.549 770.191 222.854L770.33 237.537C770.349 239.499 770.364 241.491 769.847 243.384C769.701 244.016 769.424 244.61 769.036 245.13C768.637 245.578 768.166 245.957 767.644 246.251C763.189 249.035 757.413 250.616 752.707 248.284C751.629 247.71 750.604 247.041 749.644 246.285C747.769 244.896 745.865 243.48 744.462 241.615C742.993 239.663 742.152 237.326 741.164 235.092C739.391 231.084 737.099 227.326 734.349 223.914C733.949 223.419 733.52 222.878 733.505 222.242C733.476 220.955 735.003 220.321 736.194 219.831C738.228 218.995 740.146 217.381 740.486 215.208C744.812 220.88 749.585 226.873 756.41 228.946C756.517 229.014 756.641 229.052 756.768 229.056C756.895 229.06 757.021 229.029 757.132 228.968C757.243 228.906 757.335 228.816 757.399 228.706C757.462 228.596 757.495 228.471 757.494 228.344C757.881 226.723 758.018 225.053 758.302 223.411C758.821 220.42 759.822 217.533 761.266 214.863C762.074 213.365 764.692 207.884 766.353 211.34Z" fill="#2F2E41"/>
<path id="Vector_83" opacity="0.1" d="M707.947 225.495C708.012 228.969 707.273 232.412 705.79 235.555C705.404 236.25 705.119 236.996 704.945 237.771C704.687 239.425 705.628 241.026 706.704 242.308C708.826 244.83 711.578 246.745 714.68 247.858" fill="black"/>
<path id="Vector_84" opacity="0.1" d="M759.056 222.566C758.709 223.499 759.024 224.53 759.292 225.489C760.066 228.269 760.428 231.147 760.365 234.033C760.376 234.083 760.374 234.136 760.36 234.185C760.346 234.235 760.32 234.28 760.284 234.317C760.248 234.354 760.203 234.382 760.153 234.397C760.104 234.413 760.052 234.415 760.001 234.405C758.866 234.475 757.566 234.482 756.795 233.645" fill="black"/>
</g>
<g id="robot">
<rect id="Rectangle 98" x="113.546" y="264.242" width="64.6067" height="65.309" rx="15" fill="#6C63FF"/>
<path id="Rectangle 114" d="M167.62 288.82C167.62 285.717 170.135 283.202 173.238 283.202H204.839C207.941 283.202 210.457 285.717 210.457 288.82C210.457 291.923 207.941 294.438 204.839 294.438H173.238C170.135 294.438 167.62 291.923 167.62 288.82Z" fill="#6C63FF"/>
<rect id="Rectangle 115" x="199.221" y="292.332" width="24.5787" height="11.236" rx="5.61798" transform="rotate(-90 199.221 292.332)" fill="#6C63FF"/>
<path id="Rectangle 116" d="M167.62 288.118C167.62 285.015 170.135 282.5 173.238 282.5H204.839C207.941 282.5 210.457 285.015 210.457 288.118C210.457 291.221 207.941 293.736 204.839 293.736H173.238C170.135 293.736 167.62 291.221 167.62 288.118Z" fill="#F5F5F5" fill-opacity="0.2"/>
<g id="Group 2">
<rect id="Rectangle 118" x="144.445" y="297.247" width="64.6067" height="7.72472" rx="3.86236" transform="rotate(-90 144.445 297.247)" fill="#6C63FF"/>
<g id="robot-eye">
<path id="Vector_85" d="M166.027 253.352C170.397 253.352 173.94 245.1 173.94 234.92C173.94 224.741 170.397 216.489 166.027 216.489C161.657 216.489 158.115 224.741 158.115 234.92C158.115 245.1 161.657 253.352 166.027 253.352Z" fill="#6C63FF"/>
<path id="Vector_86" d="M166.027 247.356C168.975 247.356 171.365 241.789 171.365 234.921C171.365 228.053 168.975 222.486 166.027 222.486C163.079 222.486 160.689 228.053 160.689 234.921C160.689 241.789 163.079 247.356 166.027 247.356Z" fill="#6C63FF"/>
<path id="Vector_87" opacity="0.2" d="M166.027 247.356C168.975 247.356 171.365 241.789 171.365 234.921C171.365 228.053 168.975 222.486 166.027 222.486C163.079 222.486 160.689 228.053 160.689 234.921C160.689 241.789 163.079 247.356 166.027 247.356Z" fill="#F5F5F5"/>
<path id="Vector_88" d="M166.027 243.063C167.958 243.063 169.523 239.417 169.523 234.92C169.523 230.423 167.958 226.777 166.027 226.777C164.097 226.777 162.532 230.423 162.532 234.92C162.532 239.417 164.097 243.063 166.027 243.063Z" fill="#6C63FF"/>
<path id="Vector_89" opacity="0.25" d="M166.027 243.063C167.958 243.063 169.523 239.417 169.523 234.92C169.523 230.423 167.958 226.777 166.027 226.777C164.097 226.777 162.532 230.423 162.532 234.92C162.532 239.417 164.097 243.063 166.027 243.063Z" fill="black"/>
</g>
<g id="robot-eye_2">
<path id="Vector_90" d="M129.886 253.352C134.255 253.352 137.798 245.1 137.798 234.92C137.798 224.741 134.255 216.489 129.886 216.489C125.516 216.489 121.973 224.741 121.973 234.92C121.973 245.1 125.516 253.352 129.886 253.352Z" fill="#6C63FF"/>
<path id="Vector_91" d="M129.886 247.356C132.834 247.356 135.224 241.789 135.224 234.921C135.224 228.053 132.834 222.486 129.886 222.486C126.937 222.486 124.547 228.053 124.547 234.921C124.547 241.789 126.937 247.356 129.886 247.356Z" fill="#6C63FF"/>
<path id="Vector_92" opacity="0.2" d="M129.886 247.356C132.834 247.356 135.224 241.789 135.224 234.921C135.224 228.053 132.834 222.486 129.886 222.486C126.937 222.486 124.547 228.053 124.547 234.921C124.547 241.789 126.937 247.356 129.886 247.356Z" fill="#F5F5F5"/>
<path id="Vector_93" d="M129.886 243.063C131.816 243.063 133.381 239.417 133.381 234.92C133.381 230.423 131.816 226.777 129.886 226.777C127.955 226.777 126.39 230.423 126.39 234.92C126.39 239.417 127.955 243.063 129.886 243.063Z" fill="#6C63FF"/>
<path id="Vector_94" opacity="0.25" d="M129.886 243.063C131.816 243.063 133.381 239.417 133.381 234.92C133.381 230.423 131.816 226.777 129.886 226.777C127.955 226.777 126.39 230.423 126.39 234.92C126.39 239.417 127.955 243.063 129.886 243.063Z" fill="black"/>
</g>
<rect id="Rectangle 119" x="136.72" y="231.938" width="23.8764" height="7.02247" fill="#6C63FF"/>
</g>
<rect id="Rectangle 120" x="183.771" y="267.051" width="46.3483" height="6.32022" rx="3.16011" fill="#67647E"/>
<g id="cart-bottle_4">
<rect id="Rectangle 69_4" width="9.27306" height="18.7262" transform="matrix(1 0 0.0728813 0.997341 202.522 248.983)" fill="#3F3D56"/>
<ellipse id="Ellipse 19_4" rx="4.63653" ry="7.02233" transform="matrix(1 0 0.0728813 0.997341 207.073 247.815)" fill="#3F3D56"/>
<rect id="Rectangle 70_4" width="4.63653" height="15.2151" transform="matrix(1 0 0.0728813 0.997341 203.646 232.64)" fill="#3F3D56"/>
<rect id="Rectangle 71_4" width="9.27306" height="11.7039" transform="matrix(1 0 0.0728813 0.997341 202.607 250.149)" fill="#DB1E1E"/>
<rect id="Rectangle 72_4" width="4.63653" height="2.34078" transform="matrix(1 0 0.0728813 0.997341 203.817 234.975)" fill="#DB1E1E"/>
</g>
<g id="robot-track">
<rect id="Rectangle 100" x="147.556" y="309.888" width="8.02568" height="8.02568" fill="#2F2E41"/>
<rect id="Rectangle 101" x="158.591" y="309.888" width="8.02568" height="8.02568" fill="#2F2E41"/>
<rect id="Rectangle 105" x="147.556" y="336.974" width="8.02568" height="8.02568" fill="#2F2E41"/>
<rect id="Rectangle 106" x="158.591" y="336.974" width="8.02568" height="8.02568" fill="#2F2E41"/>
<rect id="Rectangle 102" x="169.125" y="312.396" width="8.02568" height="8.02568" fill="#2F2E41"/>
<rect id="Rectangle 103" x="172.134" y="323.431" width="8.02568" height="8.02568" fill="#2F2E41"/>
<rect id="Rectangle 104" x="169.125" y="334.466" width="8.02568" height="8.02568" fill="#2F2E41"/>
<rect id="Rectangle 107" width="8.02568" height="8.02568" transform="matrix(-1 0 0 1 144.044 309.888)" fill="#2F2E41"/>
<rect id="Rectangle 108" width="8.02568" height="8.02568" transform="matrix(-1 0 0 1 133.009 309.888)" fill="#2F2E41"/>
<rect id="Rectangle 109" width="8.02568" height="8.02568" transform="matrix(-1 0 0 1 144.044 336.974)" fill="#2F2E41"/>
<rect id="Rectangle 110" width="8.02568" height="8.02568" transform="matrix(-1 0 0 1 133.009 336.974)" fill="#2F2E41"/>
<rect id="Rectangle 111" width="8.02568" height="8.02568" transform="matrix(-1 0 0 1 122.475 312.396)" fill="#2F2E41"/>
<rect id="Rectangle 112" width="8.02568" height="8.02568" transform="matrix(-1 0 0 1 119.466 323.431)" fill="#2F2E41"/>
<rect id="Rectangle 113" width="8.02568" height="8.02568" transform="matrix(-1 0 0 1 122.475 334.466)" fill="#2F2E41"/>
<circle id="Ellipse 29" cx="158.089" cy="327.444" r="8.52729" fill="#67647E"/>
<circle id="Ellipse 30" cx="133.511" cy="327.444" r="8.52729" fill="#67647E"/>
</g>
</g>
<g id="question">
<rect id="Rectangle 121" x="407.838" y="151.18" width="126.404" height="49.1573" rx="15" fill="#F5F4FF"/>
<g id="Group 3">
<g id="Vector 32">
<mask id="path-141-inside-1" fill="white">
<path d="M395.198 212.978L407.839 184.888L423.288 200.337L395.198 212.978Z"/>
</mask>
<path d="M407.839 184.888L478.549 114.177L376.101 11.7291L316.647 143.851L407.839 184.888ZM395.198 212.978L304.006 171.941L195.819 412.357L436.235 304.17L395.198 212.978ZM423.288 200.337L464.325 291.529L596.447 232.074L493.999 129.626L423.288 200.337ZM316.647 143.851L304.006 171.941L486.39 254.014L499.031 225.924L316.647 143.851ZM436.235 304.17L464.325 291.529L382.252 109.145L354.162 121.785L436.235 304.17ZM493.999 129.626L478.549 114.177L337.128 255.598L352.577 271.048L493.999 129.626Z" fill="#F5F4FF" mask="url(#path-141-inside-1)"/>
</g>
</g>
<path id="Which one?" d="M436.572 177.638L436.777 179.044L437.078 177.777L439.187 170.336H440.374L442.432 177.777L442.725 179.066L442.952 177.631L444.607 170.336H446.021L443.435 181H442.153L439.956 173.229L439.788 172.416L439.619 173.229L437.341 181H436.06L433.481 170.336H434.888L436.572 177.638ZM448.73 174.035C449.331 173.297 450.112 172.929 451.074 172.929C452.749 172.929 453.594 173.874 453.608 175.763V181H452.253V175.756C452.249 175.185 452.117 174.762 451.858 174.489C451.604 174.215 451.206 174.079 450.664 174.079C450.225 174.079 449.839 174.196 449.507 174.43C449.175 174.665 448.916 174.972 448.73 175.353V181H447.375V169.75H448.73V174.035ZM457.109 181H455.754V173.075H457.109V181ZM455.645 170.973C455.645 170.753 455.71 170.568 455.842 170.417C455.979 170.265 456.179 170.189 456.443 170.189C456.707 170.189 456.907 170.265 457.043 170.417C457.18 170.568 457.249 170.753 457.249 170.973C457.249 171.193 457.18 171.376 457.043 171.522C456.907 171.669 456.707 171.742 456.443 171.742C456.179 171.742 455.979 171.669 455.842 171.522C455.71 171.376 455.645 171.193 455.645 170.973ZM462.463 180.041C462.947 180.041 463.369 179.894 463.73 179.601C464.092 179.308 464.292 178.942 464.331 178.502H465.613C465.588 178.957 465.432 179.389 465.144 179.799C464.856 180.209 464.47 180.536 463.987 180.78C463.508 181.024 463 181.146 462.463 181.146C461.384 181.146 460.525 180.788 459.885 180.07C459.25 179.347 458.933 178.361 458.933 177.111V176.884C458.933 176.112 459.075 175.426 459.358 174.826C459.641 174.225 460.046 173.759 460.574 173.427C461.106 173.095 461.733 172.929 462.456 172.929C463.345 172.929 464.082 173.195 464.668 173.727C465.259 174.259 465.574 174.95 465.613 175.8H464.331C464.292 175.287 464.097 174.867 463.745 174.54C463.398 174.208 462.969 174.042 462.456 174.042C461.768 174.042 461.233 174.291 460.852 174.789C460.476 175.282 460.288 175.998 460.288 176.935V177.191C460.288 178.104 460.476 178.808 460.852 179.301C461.228 179.794 461.765 180.041 462.463 180.041ZM468.491 174.035C469.092 173.297 469.873 172.929 470.835 172.929C472.51 172.929 473.354 173.874 473.369 175.763V181H472.014V175.756C472.009 175.185 471.877 174.762 471.619 174.489C471.365 174.215 470.967 174.079 470.425 174.079C469.985 174.079 469.6 174.196 469.268 174.43C468.936 174.665 468.677 174.972 468.491 175.353V181H467.136V169.75H468.491V174.035ZM478.76 176.964C478.76 176.188 478.911 175.49 479.214 174.87C479.521 174.25 479.946 173.771 480.488 173.434C481.035 173.097 481.658 172.929 482.356 172.929C483.435 172.929 484.307 173.302 484.971 174.049C485.64 174.796 485.974 175.79 485.974 177.03V177.125C485.974 177.897 485.825 178.59 485.527 179.206C485.234 179.816 484.812 180.292 484.26 180.634C483.713 180.976 483.083 181.146 482.371 181.146C481.296 181.146 480.425 180.773 479.756 180.026C479.092 179.279 478.76 178.29 478.76 177.06V176.964ZM480.122 177.125C480.122 178.004 480.325 178.71 480.73 179.242C481.14 179.774 481.687 180.041 482.371 180.041C483.059 180.041 483.606 179.772 484.011 179.235C484.417 178.693 484.619 177.936 484.619 176.964C484.619 176.095 484.412 175.392 483.997 174.855C483.586 174.313 483.04 174.042 482.356 174.042C481.687 174.042 481.147 174.308 480.737 174.84C480.327 175.373 480.122 176.134 480.122 177.125ZM488.955 173.075L488.999 174.071C489.604 173.31 490.396 172.929 491.372 172.929C493.047 172.929 493.892 173.874 493.906 175.763V181H492.551V175.756C492.546 175.185 492.415 174.762 492.156 174.489C491.902 174.215 491.504 174.079 490.962 174.079C490.522 174.079 490.137 174.196 489.805 174.43C489.473 174.665 489.214 174.972 489.028 175.353V181H487.673V173.075H488.955ZM499.238 181.146C498.164 181.146 497.29 180.795 496.616 180.092C495.942 179.384 495.605 178.439 495.605 177.257V177.008C495.605 176.222 495.754 175.521 496.052 174.906C496.355 174.286 496.775 173.803 497.312 173.456C497.854 173.104 498.44 172.929 499.07 172.929C500.1 172.929 500.901 173.268 501.472 173.947C502.043 174.625 502.329 175.597 502.329 176.862V177.426H496.96C496.98 178.207 497.207 178.839 497.642 179.323C498.081 179.801 498.638 180.041 499.312 180.041C499.79 180.041 500.195 179.943 500.527 179.748C500.859 179.552 501.15 179.293 501.399 178.971L502.227 179.616C501.562 180.636 500.566 181.146 499.238 181.146ZM499.07 174.042C498.523 174.042 498.064 174.242 497.693 174.643C497.322 175.038 497.092 175.595 497.004 176.312H500.974V176.21C500.935 175.521 500.75 174.989 500.417 174.613C500.085 174.232 499.636 174.042 499.07 174.042ZM505.493 177.997C505.503 177.416 505.569 176.957 505.691 176.62C505.813 176.283 506.062 175.91 506.438 175.5L507.397 174.511C507.808 174.047 508.013 173.549 508.013 173.017C508.013 172.504 507.878 172.104 507.61 171.815C507.341 171.522 506.951 171.376 506.438 171.376C505.94 171.376 505.54 171.508 505.237 171.771C504.934 172.035 504.783 172.389 504.783 172.833H503.428C503.438 172.042 503.718 171.405 504.27 170.922C504.827 170.434 505.549 170.189 506.438 170.189C507.361 170.189 508.079 170.438 508.591 170.937C509.109 171.43 509.368 172.108 509.368 172.973C509.368 173.827 508.972 174.669 508.181 175.5L507.383 176.291C507.026 176.686 506.848 177.255 506.848 177.997H505.493ZM505.435 180.319C505.435 180.099 505.5 179.916 505.632 179.77C505.769 179.618 505.969 179.542 506.233 179.542C506.497 179.542 506.697 179.618 506.833 179.77C506.97 179.916 507.039 180.099 507.039 180.319C507.039 180.539 506.97 180.722 506.833 180.868C506.697 181.01 506.497 181.081 506.233 181.081C505.969 181.081 505.769 181.01 505.632 180.868C505.5 180.722 505.435 180.539 505.435 180.319Z" fill="#2F2E41"/>
</g>
<g id="response">
<rect id="Rectangle 123" x="764.578" y="118.876" width="126.404" height="49.1573" rx="15" fill="#F5F4FF"/>
<g id="Group 4">
<g id="Vector 32_2">
<mask id="path-145-inside-2" fill="white">
<path d="M751.938 180.674L764.578 152.584L780.028 168.034L751.938 180.674Z"/>
</mask>
<path d="M764.578 152.584L835.289 81.8738L732.841 -20.5741L673.386 111.548L764.578 152.584ZM751.938 180.674L660.746 139.638L552.559 380.054L792.974 271.867L751.938 180.674ZM780.028 168.034L821.064 259.226L953.186 199.771L850.739 97.3232L780.028 168.034ZM673.386 111.548L660.746 139.638L843.13 221.711L855.771 193.621L673.386 111.548ZM792.974 271.867L821.064 259.226L738.991 76.8418L710.902 89.4822L792.974 271.867ZM850.739 97.3232L835.289 81.8738L693.868 223.295L709.317 238.745L850.739 97.3232Z" fill="#F5F4FF" mask="url(#path-145-inside-2)"/>
</g>
</g>
</g>
<path id="Yes" d="M819.725 143.718L822.508 138.364H824.105L820.428 145.051V149.028H819.022V145.051L815.345 138.364H816.957L819.725 143.718ZM828.075 149.175C827 149.175 826.126 148.823 825.453 148.12C824.779 147.412 824.442 146.467 824.442 145.286V145.037C824.442 144.25 824.591 143.55 824.889 142.935C825.191 142.314 825.611 141.831 826.148 141.484C826.69 141.133 827.276 140.957 827.906 140.957C828.937 140.957 829.737 141.296 830.309 141.975C830.88 142.654 831.166 143.625 831.166 144.89V145.454H825.797C825.816 146.235 826.043 146.868 826.478 147.351C826.917 147.83 827.474 148.069 828.148 148.069C828.626 148.069 829.032 147.971 829.364 147.776C829.696 147.581 829.986 147.322 830.235 147L831.063 147.644C830.399 148.665 829.403 149.175 828.075 149.175ZM827.906 142.07C827.359 142.07 826.9 142.271 826.529 142.671C826.158 143.066 825.929 143.623 825.841 144.341H829.811V144.238C829.771 143.55 829.586 143.018 829.254 142.642C828.922 142.261 828.473 142.07 827.906 142.07ZM837.354 146.926C837.354 146.56 837.215 146.277 836.937 146.077C836.664 145.872 836.183 145.696 835.494 145.549C834.811 145.403 834.266 145.227 833.861 145.022C833.46 144.817 833.163 144.573 832.967 144.29C832.777 144.006 832.682 143.669 832.682 143.279C832.682 142.629 832.955 142.08 833.502 141.631C834.054 141.182 834.757 140.957 835.611 140.957C836.51 140.957 837.237 141.189 837.794 141.653C838.355 142.117 838.636 142.71 838.636 143.433H837.274C837.274 143.062 837.115 142.742 836.798 142.473C836.485 142.205 836.09 142.07 835.611 142.07C835.118 142.07 834.732 142.178 834.454 142.393C834.176 142.607 834.037 142.888 834.037 143.235C834.037 143.562 834.166 143.809 834.425 143.975C834.684 144.141 835.15 144.299 835.824 144.451C836.502 144.602 837.052 144.783 837.472 144.993C837.892 145.203 838.202 145.457 838.402 145.754C838.607 146.047 838.709 146.406 838.709 146.831C838.709 147.539 838.426 148.108 837.86 148.538C837.293 148.962 836.559 149.175 835.655 149.175C835.021 149.175 834.459 149.062 833.971 148.838C833.482 148.613 833.099 148.301 832.821 147.9C832.547 147.495 832.411 147.058 832.411 146.589H833.766C833.79 147.043 833.971 147.405 834.308 147.673C834.649 147.937 835.099 148.069 835.655 148.069C836.168 148.069 836.578 147.966 836.886 147.761C837.198 147.551 837.354 147.273 837.354 146.926Z" fill="#2F2E41"/>
<g id="low-plant">
<path id="Vector_95" d="M44.5715 233C44.5715 233 58.9282 247.357 50.8257 268.663C42.7233 289.968 64.7241 325.402 64.7241 325.402L64.0514 325.291C34.5617 320.116 19.9093 286.361 36.3064 261.307C42.398 251.985 47.4029 241.058 44.5715 233Z" fill="#6C63FF"/>
<path id="Vector_96" d="M44.5715 233C44.5715 233 52.7035 250.602 44.5715 264.959C36.4394 279.316 43.1816 319.613 64.7167 325.402" stroke="#535461" stroke-miterlimit="10"/>
<path id="Vector_97" d="M19 291.07C19 291.07 35.3823 288.46 36.8756 303.142C38.369 317.824 68.3835 319.857 68.3835 319.857L67.8216 320.234C43.0412 336.498 19.3548 330.584 22.9255 308.998C24.2562 300.969 24.138 292.904 19 291.07Z" fill="#6C63FF"/>
<path id="Vector_98" opacity="0.2" d="M19 291.07C19 291.07 35.3823 288.46 36.8756 303.142C38.369 317.824 68.3835 319.857 68.3835 319.857L67.8216 320.234C43.0412 336.498 19.3548 330.584 22.9255 308.998C24.2562 300.969 24.138 292.904 19 291.07Z" fill="#F5F5F5"/>
<path id="Vector_99" d="M19 291.07C19 291.07 31.7155 293.865 30.6731 305.427C29.6307 316.989 49.5616 330.851 68.3761 319.865" stroke="#535461" stroke-miterlimit="10"/>
<path id="Vector_100" d="M81.6237 322.659C81.6237 322.659 71.3183 320.597 68.5756 317.854C65.8329 315.111 53.4648 310.299 52.0898 313.736C50.7147 317.174 33.5414 328.847 45.2219 330.91C56.9024 332.972 72.7007 333.66 76.1309 332.285C79.5612 330.91 81.6237 322.659 81.6237 322.659Z" fill="#A8A8A8"/>
<path id="Vector_101" opacity="0.2" d="M45.2148 329.623C56.8953 331.686 72.6936 332.373 76.1239 330.998C78.7409 329.949 80.5595 324.929 81.2988 322.585L81.6389 322.659C81.6389 322.659 79.5763 330.902 76.1461 332.27C72.7158 333.638 56.9249 332.957 45.237 330.895C41.8659 330.303 40.9049 328.906 41.2671 327.132C41.5332 328.293 42.7382 329.18 45.2148 329.623Z" fill="black"/>
</g>
<g id="smaller-drone">
<g id="Robot-drone_2">
<path id="Vector_102" d="M325.296 34.2194C329.023 34.2194 332.044 31.1981 332.044 27.4713C332.044 23.7444 329.023 20.7231 325.296 20.7231C321.569 20.7231 318.548 23.7444 318.548 27.4713C318.548 31.1981 321.569 34.2194 325.296 34.2194Z" fill="#6C63FF"/>
<path id="Vector_103" d="M325.296 32.0243C327.81 32.0243 329.849 29.986 329.849 27.4716C329.849 24.9572 327.81 22.9189 325.296 22.9189C322.781 22.9189 320.743 24.9572 320.743 27.4716C320.743 29.986 322.781 32.0243 325.296 32.0243Z" fill="#6C63FF"/>
<path id="Vector_104" opacity="0.2" d="M325.296 32.0243C327.81 32.0243 329.849 29.986 329.849 27.4716C329.849 24.9572 327.81 22.9189 325.296 22.9189C322.781 22.9189 320.743 24.9572 320.743 27.4716C320.743 29.986 322.781 32.0243 325.296 32.0243Z" fill="#F5F5F5"/>
<path id="Vector_105" d="M325.296 30.4521C326.942 30.4521 328.277 29.1174 328.277 27.4709C328.277 25.8245 326.942 24.4897 325.296 24.4897C323.649 24.4897 322.314 25.8245 322.314 27.4709C322.314 29.1174 323.649 30.4521 325.296 30.4521Z" fill="#6C63FF"/>
<path id="Vector_106" opacity="0.25" d="M325.296 30.4521C326.942 30.4521 328.277 29.1174 328.277 27.4709C328.277 25.8245 326.942 24.4897 325.296 24.4897C323.649 24.4897 322.314 25.8245 322.314 27.4709C322.314 29.1174 323.649 30.4521 325.296 30.4521Z" fill="black"/>
<path id="Vector_107" d="M313.778 17.4252C313.778 17.4252 304.676 25.4344 305.93 41.2813C305.93 41.2813 307.03 43.3216 309.856 41.2813C309.856 41.2813 307.502 21.1888 323.197 17.4219L313.778 17.4252Z" fill="#6C63FF"/>
<path id="Vector_108" d="M334.811 17.4252C334.811 17.4252 343.916 25.4344 342.672 41.2813C342.672 41.2813 341.572 43.3216 338.746 41.2813C338.746 41.2813 341.1 21.1888 325.405 17.4219L334.811 17.4252Z" fill="#6C63FF"/>
<path id="Vector_109" d="M330.905 3.7666H318.584C314.358 3.7666 310.932 7.19284 310.932 11.4193C310.932 15.6458 314.358 19.072 318.584 19.072H330.905C335.132 19.072 338.558 15.6458 338.558 11.4193C338.558 7.19284 335.132 3.7666 330.905 3.7666Z" fill="#6C63FF"/>
<path id="Vector_110" d="M315.458 15.6027L293.903 14.9985C293.061 14.9753 292.262 14.6246 291.675 14.0209C291.088 13.4173 290.759 12.6084 290.76 11.7664V10.9411C290.76 10.109 291.081 9.30904 291.656 8.70762C292.231 8.10619 293.015 7.74968 293.847 7.71228L315.402 6.74497C315.838 6.72534 316.274 6.79432 316.682 6.94773C317.091 7.10114 317.465 7.3358 317.78 7.63755C318.096 7.93931 318.347 8.30189 318.519 8.70342C318.691 9.10495 318.779 9.53709 318.779 9.97376V12.3739C318.779 12.8057 318.692 13.233 318.524 13.6307C318.356 14.0284 318.109 14.3883 317.8 14.6893C317.49 14.9903 317.124 15.2262 316.721 15.383C316.319 15.5399 315.889 15.6146 315.458 15.6027Z" fill="#6C63FF"/>
<path id="Vector_111" d="M334.976 15.6027L356.531 14.9985C357.372 14.9753 358.172 14.6246 358.759 14.0209C359.346 13.4173 359.674 12.6084 359.674 11.7664V10.9411C359.674 10.109 359.353 9.30904 358.778 8.70762C358.203 8.10619 357.418 7.74968 356.587 7.71228L335.032 6.74497C334.595 6.72534 334.16 6.79432 333.751 6.94773C333.342 7.10114 332.969 7.3358 332.653 7.63755C332.337 7.93931 332.086 8.30189 331.914 8.70342C331.743 9.10495 331.654 9.53709 331.654 9.97376V12.3739C331.655 12.8057 331.741 13.233 331.91 13.6307C332.078 14.0284 332.324 14.3883 332.633 14.6893C332.943 14.9903 333.31 15.2262 333.712 15.383C334.114 15.5399 334.544 15.6146 334.976 15.6027Z" fill="#6C63FF"/>
<path id="Vector_112" opacity="0.2" d="M315.458 15.6027L293.903 14.9985C293.061 14.9753 292.262 14.6246 291.675 14.0209C291.088 13.4173 290.759 12.6084 290.76 11.7664V10.9411C290.76 10.109 291.081 9.30904 291.656 8.70762C292.231 8.10619 293.015 7.74968 293.847 7.71228L315.402 6.74497C315.838 6.72534 316.274 6.79432 316.682 6.94773C317.091 7.10114 317.465 7.3358 317.78 7.63755C318.096 7.93931 318.347 8.30189 318.519 8.70342C318.691 9.10495 318.779 9.53709 318.779 9.97376V12.3739C318.779 12.8057 318.692 13.233 318.524 13.6307C318.356 14.0284 318.109 14.3883 317.8 14.6893C317.49 14.9903 317.124 15.2262 316.721 15.383C316.319 15.5399 315.889 15.6146 315.458 15.6027Z" fill="#F5F5F5"/>
<path id="Vector_113" opacity="0.2" d="M334.976 15.6027L356.531 14.9985C357.372 14.9753 358.172 14.6246 358.759 14.0209C359.346 13.4173 359.674 12.6084 359.674 11.7664V10.9411C359.674 10.109 359.353 9.30904 358.778 8.70762C358.203 8.10619 357.418 7.74968 356.587 7.71228L335.032 6.74497C334.595 6.72534 334.16 6.79432 333.751 6.94773C333.342 7.10114 332.969 7.3358 332.653 7.63755C332.337 7.93931 332.086 8.30189 331.914 8.70342C331.743 9.10495 331.654 9.53709 331.654 9.97376V12.3739C331.655 12.8057 331.741 13.233 331.91 13.6307C332.078 14.0284 332.324 14.3883 332.633 14.6893C332.943 14.9903 333.31 15.2262 333.712 15.383C334.114 15.5399 334.544 15.6146 334.976 15.6027Z" fill="#F5F5F5"/>
<path id="Vector_114" d="M288.802 6.2793H287.858C285.821 6.2793 284.17 7.93034 284.17 9.96699V11.8521C284.17 13.8888 285.821 15.5398 287.858 15.5398H288.802C290.838 15.5398 292.49 13.8888 292.49 11.8521V9.96699C292.49 7.93034 290.838 6.2793 288.802 6.2793Z" fill="#6C63FF"/>
<path id="Vector_115" d="M362.734 6.2793H361.79C359.753 6.2793 358.102 7.93034 358.102 9.96699V11.8521C358.102 13.8888 359.753 15.5398 361.79 15.5398H362.734C364.771 15.5398 366.422 13.8888 366.422 11.8521V9.96699C366.422 7.93034 364.771 6.2793 362.734 6.2793Z" fill="#6C63FF"/>
<path id="Vector_116" d="M289.663 4.23926H287.151C286.458 4.23926 285.896 4.80094 285.896 5.4938V5.4971C285.896 6.18997 286.458 6.75165 287.151 6.75165H289.663C290.356 6.75165 290.918 6.18997 290.918 5.4971V5.4938C290.918 4.80094 290.356 4.23926 289.663 4.23926Z" fill="#6C63FF"/>
<path id="Vector_117" d="M290.136 1.88512C290.136 0.843996 289.292 0 288.252 0C287.212 0 286.369 0.843996 286.369 1.88512V3.76693C286.369 4.80805 287.212 5.65205 288.252 5.65205C289.292 5.65205 290.136 4.80805 290.136 3.76693V1.88512Z" fill="#6C63FF"/>
<path id="Vector_118" d="M278.518 4.23911C284.327 4.23911 289.036 3.60648 289.036 2.8261C289.036 2.04571 284.327 1.41309 278.518 1.41309C272.709 1.41309 268 2.04571 268 2.8261C268 3.60648 272.709 4.23911 278.518 4.23911Z" fill="#6C63FF"/>
<path id="Vector_119" d="M297.983 4.23911C303.792 4.23911 308.502 3.60648 308.502 2.8261C308.502 2.04571 303.792 1.41309 297.983 1.41309C292.174 1.41309 287.465 2.04571 287.465 2.8261C287.465 3.60648 292.174 4.23911 297.983 4.23911Z" fill="#6C63FF"/>
<path id="Vector_120" d="M363.751 4.23926H361.238C360.546 4.23926 359.984 4.80094 359.984 5.4938V5.4971C359.984 6.18997 360.546 6.75165 361.238 6.75165H363.751C364.444 6.75165 365.005 6.18997 365.005 5.4971V5.4938C365.005 4.80094 364.444 4.23926 363.751 4.23926Z" fill="#6C63FF"/>
<path id="Vector_121" d="M364.223 1.88512C364.223 0.843996 363.38 0 362.34 0C361.299 0 360.456 0.843996 360.456 1.88512V3.76693C360.456 4.80805 361.299 5.65205 362.34 5.65205C363.38 5.65205 364.223 4.80805 364.223 3.76693V1.88512Z" fill="#6C63FF"/>
<path id="Vector_122" d="M352.609 4.23911C358.418 4.23911 363.127 3.60648 363.127 2.8261C363.127 2.04571 358.418 1.41309 352.609 1.41309C346.8 1.41309 342.09 2.04571 342.09 2.8261C342.09 3.60648 346.8 4.23911 352.609 4.23911Z" fill="#6C63FF"/>
<path id="Vector_123" d="M372.071 4.23911C377.88 4.23911 382.589 3.60648 382.589 2.8261C382.589 2.04571 377.88 1.41309 372.071 1.41309C366.261 1.41309 361.552 2.04571 361.552 2.8261C361.552 3.60648 366.261 4.23911 372.071 4.23911Z" fill="#6C63FF"/>
<path id="Vector_124" opacity="0.2" d="M278.518 4.23911C284.327 4.23911 289.036 3.60648 289.036 2.8261C289.036 2.04571 284.327 1.41309 278.518 1.41309C272.709 1.41309 268 2.04571 268 2.8261C268 3.60648 272.709 4.23911 278.518 4.23911Z" fill="#F5F5F5"/>
<path id="Vector_125" opacity="0.2" d="M297.983 4.23911C303.792 4.23911 308.502 3.60648 308.502 2.8261C308.502 2.04571 303.792 1.41309 297.983 1.41309C292.174 1.41309 287.465 2.04571 287.465 2.8261C287.465 3.60648 292.174 4.23911 297.983 4.23911Z" fill="#F5F5F5"/>
<path id="Vector_126" opacity="0.2" d="M352.609 4.23911C358.418 4.23911 363.127 3.60648 363.127 2.8261C363.127 2.04571 358.418 1.41309 352.609 1.41309C346.8 1.41309 342.09 2.04571 342.09 2.8261C342.09 3.60648 346.8 4.23911 352.609 4.23911Z" fill="#F5F5F5"/>
<path id="Vector_127" opacity="0.2" d="M372.071 4.23911C377.88 4.23911 382.589 3.60648 382.589 2.8261C382.589 2.04571 377.88 1.41309 372.071 1.41309C366.261 1.41309 361.552 2.04571 361.552 2.8261C361.552 3.60648 366.261 4.23911 372.071 4.23911Z" fill="#F5F5F5"/>
<path id="Vector_128" d="M329.063 16.167H321.529C320.141 16.167 319.017 17.2911 319.017 18.6777C319.017 20.0644 320.141 21.1885 321.529 21.1885H329.063C330.45 21.1885 331.575 20.0644 331.575 18.6777C331.575 17.2911 330.45 16.167 329.063 16.167Z" fill="#6C63FF"/>
<path id="Vector_129" opacity="0.2" d="M329.063 16.167H321.529C320.141 16.167 319.017 17.2911 319.017 18.6777C319.017 20.0644 320.141 21.1885 321.529 21.1885H329.063C330.45 21.1885 331.575 20.0644 331.575 18.6777C331.575 17.2911 330.45 16.167 329.063 16.167Z" fill="#F5F5F5"/>
<path id="Vector_130" d="M335.696 42.2583H307.729V70.2247H335.696H342.84V42.2583H335.696Z" fill="#67647E"/>
<path id="Vector_131" opacity="0.25" d="M342.843 42.2583H335.695V70.2247H342.843V42.2583Z" fill="black"/>
</g>
<g id="cart-bottle_5">
<rect id="Rectangle 69_5" width="4.7224" height="9.53652" transform="matrix(0.955169 0.296061 -0.22566 0.974206 329.276 55.0103)" fill="#3F3D56"/>
<ellipse id="Ellipse 19_5" rx="2.3612" ry="3.57619" transform="matrix(0.955169 0.296061 -0.22566 0.974206 331.666 55.1283)" fill="#3F3D56"/>
<rect id="Rectangle 70_5" width="2.3612" height="7.74842" transform="matrix(0.955169 0.296061 -0.22566 0.974206 332.286 47.23)" fill="#3F3D56"/>
<rect id="Rectangle 71_5" width="4.7224" height="5.96032" transform="matrix(0.955169 0.296061 -0.22566 0.974206 329.141 55.5903)" fill="#DB1E1E"/>
<rect id="Rectangle 72_5" width="2.3612" height="1.19206" transform="matrix(0.955169 0.296061 -0.22566 0.974206 332.018 48.3916)" fill="#DB1E1E"/>
</g>
<g id="cart-bottle_6">
<rect id="Rectangle 69_6" width="4.7224" height="9.53652" transform="matrix(0.955169 0.296061 -0.22566 0.974206 315.042 55.0103)" fill="#3F3D56"/>
<ellipse id="Ellipse 19_6" rx="2.3612" ry="3.57619" transform="matrix(0.955169 0.296061 -0.22566 0.974206 317.432 55.1283)" fill="#3F3D56"/>
<rect id="Rectangle 70_6" width="2.3612" height="7.74842" transform="matrix(0.955169 0.296061 -0.22566 0.974206 318.052 47.23)" fill="#3F3D56"/>
<rect id="Rectangle 71_6" width="4.7224" height="5.96032" transform="matrix(0.955169 0.296061 -0.22566 0.974206 314.907 55.5903)" fill="#DB1E1E"/>
<rect id="Rectangle 72_6" width="2.3612" height="1.19206" transform="matrix(0.955169 0.296061 -0.22566 0.974206 317.784 48.3916)" fill="#DB1E1E"/>
</g>
<g id="cart-bottle_7">
<rect id="Rectangle 69_7" width="4.7224" height="9.53652" transform="matrix(0.955169 0.296061 -0.22566 0.974206 322.362 55.0103)" fill="#3F3D56"/>
<ellipse id="Ellipse 19_7" rx="2.3612" ry="3.57619" transform="matrix(0.955169 0.296061 -0.22566 0.974206 324.752 55.1283)" fill="#3F3D56"/>
<rect id="Rectangle 70_7" width="2.3612" height="7.74842" transform="matrix(0.955169 0.296061 -0.22566 0.974206 325.373 47.23)" fill="#3F3D56"/>
<rect id="Rectangle 71_7" width="4.7224" height="5.96032" transform="matrix(0.955169 0.296061 -0.22566 0.974206 322.227 55.5903)" fill="#DB1E1E"/>
<rect id="Rectangle 72_7" width="2.3612" height="1.19206" transform="matrix(0.955169 0.296061 -0.22566 0.974206 325.104 48.3916)" fill="#DB1E1E"/>
</g>
</g>
</g>
</svg>
