<svg width="559" height="703" viewBox="0 0 559 703" fill="none" xmlns="http://www.w3.org/2000/svg" class="svg">
<g id="person__blue_wine 1">
<g id="person drinking wine">
<g id="platform">
<path id="Vector" d="M279.5 703C433.864 703 559 679.719 559 651C559 622.281 433.864 599 279.5 599C125.136 599 0 622.281 0 651C0 679.719 125.136 703 279.5 703Z" fill="#999999"/>
</g>
<g id="person">
<path id="Vector 2" d="M355.856 334.382L348.505 508.052L343.911 586.158C343.911 586.158 354.018 602.698 339.316 604.536C324.614 606.373 297.047 601.779 300.723 592.59C304.398 583.401 307.155 583.401 307.155 583.401L310.831 495.188L283.264 386.759L248.346 503.458L240.995 587.077C240.995 587.077 251.103 599.941 240.995 602.698C230.887 605.454 204.24 605.454 205.159 597.184C206.077 588.914 209.753 588.915 209.753 588.915L205.159 346.328L218.942 325.194L355.856 334.382Z" fill="#2F2E41"/>
<path id="Vector 3" d="M335.641 599.022L339.316 621.994C339.316 621.994 360.451 666.101 331.046 666.101C301.642 666.101 309.912 648.642 309.912 648.642L312.669 599.022H335.641Z" fill="#2F2E41"/>
<path id="Vector 4" d="M210.672 599.022L206.996 621.994C206.996 621.994 185.862 666.101 215.266 666.101C244.671 666.101 236.401 648.642 236.401 648.642L233.644 599.022H210.672Z" fill="#2F2E41"/>
<path id="Vector 5" d="M304.399 74.3371C304.399 74.3371 313.587 107.417 315.425 107.417C317.263 107.417 297.966 133.146 297.966 133.146L269.481 148.767L259.373 106.498C259.373 106.498 268.562 83.5259 266.724 71.5804L304.399 74.3371Z" fill="#D9ADB4"/>
<path id="Vector 6" d="M289.696 87.2015C308.473 87.2015 323.695 71.9797 323.695 53.2026C323.695 34.4256 308.473 19.2038 289.696 19.2038C270.919 19.2038 255.697 34.4256 255.697 53.2026C255.697 71.9797 270.919 87.2015 289.696 87.2015Z" fill="#D9ADB4"/>
<path id="Vector 7" d="M285.102 123.957L312.267 100.366L328.29 108.336L363.207 130.389C363.207 130.389 354.018 328.869 358.613 336.22C358.613 336.22 348.505 359.192 288.777 345.409C229.05 331.626 213.429 329.788 213.429 329.788L226.293 208.495L210.672 132.227L263.143 95.535L279.589 123.957H285.102Z" fill="#3F3D56"/>
<path id="Vector 8" d="M386.18 201.144C386.18 201.144 399.963 244.331 389.855 248.926C379.747 253.52 371.477 251.682 371.477 251.682L355.856 214.008L386.18 201.144Z" fill="#D9ADB4"/>
<path id="Vector 9" d="M195.051 193.793L186.781 232.386V310.491C186.781 310.491 198.726 360.111 207.915 347.247C217.104 334.382 216.914 330.309 216.914 330.309L205.159 312.329L210.672 238.818L225.321 203.751L195.051 193.793Z" fill="#D9ADB4"/>
<path id="Vector 10" d="M257.535 19.2038C257.535 19.2038 268.562 -4.68731 289.696 0.825994C310.831 6.33931 322.776 14.6093 323.695 22.8793C324.614 31.1493 323.236 43.5543 323.236 43.5543C323.236 43.5543 320.939 26.5549 306.236 30.2304C291.534 33.906 268.562 31.1493 268.562 31.1493L264.886 64.2293C264.886 64.2293 260.751 58.2565 256.157 61.9321C251.562 65.6076 242.833 26.5549 257.535 19.2038Z" fill="#2F2E41"/>
<path id="Vector 11" d="M355.856 132.227L363.207 130.389C363.207 130.389 376.991 147.848 381.585 168.064C386.18 188.279 392.612 208.495 388.936 208.495C385.261 208.495 352.181 221.359 352.181 221.359L355.856 132.227Z" fill="#3F3D56"/>
<path id="Vector 12" d="M231.806 130.389L210.672 132.227C210.672 132.227 186.781 197.468 189.537 199.306C192.294 201.144 225.374 212.17 229.969 209.414C234.563 206.657 231.806 130.389 231.806 130.389Z" fill="#3F3D56"/>
</g>
<g id="wine in glass">
<path id="Vector 13" d="M343.674 207.541C334.838 213.365 327.543 217.733 321.964 220.88H321.959C313.82 220.325 305.646 220.554 297.552 221.566C291.832 218.373 284.117 213.795 274.625 207.541C274.535 207.481 274.445 207.421 274.355 207.356V207.351C265.649 201.361 265.434 188.677 268.266 175.708C275.471 174.907 286.959 175.258 302.395 180.772C320.673 187.301 339.807 183.609 350.895 180.251C352.716 191.694 351.605 202.312 343.674 207.541Z" fill="#6C63FF"/>
</g>
<g id="glass">
<path id="Vector 14" d="M309.014 324.764C292.277 324.764 274.49 322.221 274.49 317.509C274.49 313.032 290.216 310.646 305.011 310.299V233.699C305.011 231.877 304.133 229.541 302.4 226.758C301.6 225.489 300.734 224.263 299.804 223.087C298.978 222.639 298.101 222.158 297.173 221.642C290.036 217.658 282.312 212.933 274.214 207.598C274.117 207.533 274.022 207.469 273.927 207.401L273.719 207.25C266.213 201.911 264.168 191.144 267.641 175.24C271.762 156.34 282.449 136.587 282.556 136.39L282.769 136L283.181 136.165C283.38 136.244 303.438 144.012 334.911 136.144L335.287 136.05L335.472 136.39C335.488 136.419 337.076 139.338 339.224 143.922C343.586 153.222 349.215 166.998 351.253 179.812C353.44 193.553 350.937 202.901 343.814 207.598C336.174 212.633 328.86 217.127 322.074 220.955L321.956 221.02C321.002 221.561 320.099 222.064 319.246 222.53C318.924 222.98 318.61 223.453 318.312 223.938C317.914 224.585 317.533 225.271 317.177 225.978C315.086 230.192 313.993 234.831 313.983 239.536L313.531 310.315C328.079 310.697 343.539 313.092 343.539 317.509C343.539 322.221 325.751 324.764 309.014 324.764ZM274.72 206.732L274.767 206.763C282.842 212.084 290.545 216.797 297.66 220.768C298.618 221.302 299.522 221.797 300.371 222.255L300.462 222.305L300.526 222.386C301.503 223.616 302.412 224.899 303.249 226.229C305.083 229.174 306.012 231.687 306.012 233.699V311.279L305.522 311.289C286.972 311.667 275.49 314.812 275.49 317.509C275.49 320.467 289.258 323.763 309.014 323.763C328.77 323.763 342.538 320.467 342.538 317.509C342.538 314.852 331.251 311.725 313.016 311.304L312.524 311.292L312.982 239.53C312.993 234.671 314.123 229.88 316.283 225.528C316.651 224.796 317.047 224.085 317.459 223.415C317.79 222.875 318.141 222.349 318.501 221.852L318.568 221.76L318.667 221.706C319.58 221.207 320.55 220.667 321.577 220.084L321.697 220.019C328.431 216.216 335.686 211.757 343.264 206.762C350.029 202.302 352.385 193.287 350.265 179.969C348.245 167.27 342.653 153.589 338.318 144.347C336.603 140.688 335.25 138.1 334.776 137.209C305.695 144.385 286.292 138.321 283.232 137.248C281.736 140.074 272.394 158.136 268.619 175.453C265.208 191.073 267.188 201.545 274.503 206.577L274.72 206.732Z" fill="#F2F2F2"/>
</g>
<g id="bubbles">
<path id="Vector 15" d="M291.137 171.015C292.519 171.015 293.639 169.894 293.639 168.513C293.639 167.131 292.519 166.011 291.137 166.011C289.755 166.011 288.635 167.131 288.635 168.513C288.635 169.894 289.755 171.015 291.137 171.015Z" fill="#6C63FF"/>
<path id="Vector 16" d="M284.132 194.031C285.514 194.031 286.634 192.911 286.634 191.529C286.634 190.148 285.514 189.027 284.132 189.027C282.75 189.027 281.63 190.148 281.63 191.529C281.63 192.911 282.75 194.031 284.132 194.031Z" fill="white"/>
<path id="Vector 17" d="M297.141 176.018C297.97 176.018 298.642 175.346 298.642 174.517C298.642 173.688 297.97 173.016 297.141 173.016C296.312 173.016 295.64 173.688 295.64 174.517C295.64 175.346 296.312 176.018 297.141 176.018Z" fill="#6C63FF"/>
<path id="Vector 18" d="M303.145 204.538C303.974 204.538 304.647 203.866 304.647 203.037C304.647 202.208 303.974 201.536 303.145 201.536C302.316 201.536 301.644 202.208 301.644 203.037C301.644 203.866 302.316 204.538 303.145 204.538Z" fill="white"/>
<path id="Vector 19" d="M292.638 206.04C293.467 206.04 294.139 205.368 294.139 204.538C294.139 203.709 293.467 203.037 292.638 203.037C291.809 203.037 291.137 203.709 291.137 204.538C291.137 205.368 291.809 206.04 292.638 206.04Z" fill="white"/>
<path id="Vector 20" d="M323.501 152.002C324.33 152.002 325.002 151.33 325.002 150.501C325.002 149.672 324.33 149 323.501 149C322.672 149 322 149.672 322 150.501C322 151.33 322.672 152.002 323.501 152.002Z" fill="#6C63FF"/>
</g>
<g id="hand holding wine">
<path id="Vector 21" d="M383.571 222.359C383.571 222.359 394.597 242.574 391.841 249.006C389.084 255.439 366.112 259.114 363.355 259.114C360.599 259.114 327.518 251.763 327.518 251.763C327.518 251.763 276.98 227.872 291.682 215.926C306.384 203.981 333.951 232.466 333.951 232.466H356.004L367.95 224.196L383.571 222.359Z" fill="#D9ADB4"/>
</g>
</g>
</g>
</svg>
