<svg width="978" height="388" viewBox="0 0 978 388" fill="none" xmlns="http://www.w3.org/2000/svg">
<path opacity="0.1" d="M973.999 312C979 312.758 979.889 321.293 969.736 324.408C932.23 335.722 894.158 347.135 853.866 351.018C778.246 358.301 700.144 338.58 625.807 350.85C563.527 361.12 439.015 358.144 378.169 372.159C349.877 378.673 367.484 374.264 335.771 381.984L324.741 383.739C321.063 383.706 316.124 387.573 264.764 386.195C234.651 385.387 190.53 390.265 161.01 386.195C67.8034 373.383 0.0368949 372.159 0.0368949 331.805C-5.47823 292.504 608.607 256.621 973.999 312Z" fill="#252223"/>
<path d="M200.391 289.61C200.391 289.61 209.668 258.1 198.65 234.911C193.966 225.214 192.554 214.258 194.626 203.69C195.647 198.68 197.126 193.774 199.043 189.034" stroke="#535461" stroke-width="2" stroke-miterlimit="10"/>
<path d="M192.188 174.357C192.188 178.219 199.211 189.413 199.211 189.413C199.211 189.413 206.233 178.212 206.233 174.357C206.068 172.618 205.26 171.002 203.967 169.827C202.674 168.651 200.99 168 199.243 168C197.495 168 195.811 168.651 194.518 169.827C193.225 171.002 192.417 172.618 192.252 174.357H192.188Z" fill="#6C63FF"/>
<path d="M180.63 195.747C182.737 198.992 194.675 204.589 194.675 204.589C194.675 204.589 194.457 191.386 192.358 188.149C191.275 186.773 189.718 185.85 187.991 185.562C186.264 185.275 184.492 185.642 183.022 186.594C181.552 187.545 180.49 189.011 180.045 190.704C179.6 192.398 179.804 194.196 180.616 195.747H180.63Z" fill="#6C63FF"/>
<path d="M181.135 232.299C184.583 234.041 197.729 232.84 197.729 232.84C197.729 232.84 190.875 221.555 187.427 219.813C186.6 219.302 185.676 218.969 184.713 218.833C183.75 218.698 182.769 218.764 181.833 219.028C180.898 219.291 180.026 219.746 179.275 220.364C178.525 220.982 177.91 221.749 177.471 222.616C177.032 223.484 176.778 224.433 176.724 225.404C176.671 226.375 176.82 227.346 177.162 228.256C177.504 229.167 178.031 229.996 178.71 230.692C179.389 231.388 180.205 231.935 181.107 232.299H181.135Z" fill="#6C63FF"/>
<path d="M187.744 259.869C190.848 262.166 204.008 263.205 204.008 263.205C204.008 263.205 199.162 250.923 196.058 248.626C194.562 247.731 192.786 247.424 191.076 247.766C189.366 248.108 187.844 249.073 186.807 250.475C185.77 251.877 185.291 253.614 185.464 255.349C185.637 257.085 186.45 258.693 187.744 259.862V259.869Z" fill="#6C63FF"/>
<path d="M209.338 205.34C206.571 208.029 193.664 210.817 193.664 210.817C193.664 210.817 196.824 198.001 199.59 195.312C200.953 194.213 202.676 193.663 204.423 193.769C206.17 193.875 207.814 194.629 209.034 195.884C210.253 197.139 210.961 198.804 211.017 200.553C211.073 202.302 210.474 204.009 209.338 205.34V205.34Z" fill="#6C63FF"/>
<path d="M216.683 237.679C213.235 239.42 200.089 238.219 200.089 238.219C200.089 238.219 206.943 226.934 210.391 225.193C211.218 224.682 212.142 224.348 213.105 224.213C214.068 224.078 215.049 224.144 215.985 224.407C216.921 224.671 217.792 225.126 218.543 225.743C219.294 226.361 219.908 227.128 220.347 227.995C220.787 228.863 221.041 229.812 221.094 230.783C221.147 231.754 220.998 232.725 220.656 233.636C220.314 234.546 219.787 235.375 219.108 236.071C218.429 236.767 217.613 237.315 216.711 237.679H216.683Z" fill="#6C63FF"/>
<path d="M219.485 270.087C216.381 272.384 203.221 273.423 203.221 273.423C203.221 273.423 208.067 261.141 211.171 258.844C212.667 257.949 214.443 257.642 216.153 257.984C217.863 258.326 219.384 259.291 220.422 260.693C221.459 262.095 221.938 263.832 221.764 265.567C221.591 267.302 220.779 268.911 219.485 270.08V270.087Z" fill="#6C63FF"/>
<path d="M221.978 288.592C221.978 288.592 205.019 285.2 200.496 280.678C195.974 276.155 175.623 268.241 173.361 273.894C171.1 279.547 142.835 298.768 162.055 302.159C181.276 305.551 207.28 306.682 212.926 304.421C218.572 302.159 221.978 288.592 221.978 288.592Z" fill="#A8A8A8"/>
<path opacity="0.2" d="M161.658 299.995C180.878 303.387 206.882 304.517 212.528 302.256C216.833 300.536 219.825 292.263 221.004 288.408L221.573 288.527C221.573 288.527 218.181 302.095 212.528 304.356C206.875 306.617 180.871 305.486 161.658 302.095C156.11 301.118 154.523 298.815 155.12 295.908C155.597 297.804 157.528 299.264 161.658 299.995Z" fill="black"/>
<path d="M605.944 82.3288C611.534 82.3288 616.066 77.797 616.066 72.2067C616.066 66.6163 611.534 62.0845 605.944 62.0845C600.354 62.0845 595.822 66.6163 595.822 72.2067C595.822 77.797 600.354 82.3288 605.944 82.3288Z" fill="#6C63FF"/>
<path d="M605.944 79.0359C609.715 79.0359 612.773 75.9785 612.773 72.2069C612.773 68.4354 609.715 65.3779 605.944 65.3779C602.172 65.3779 599.115 68.4354 599.115 72.2069C599.115 75.9785 602.172 79.0359 605.944 79.0359Z" fill="#6C63FF"/>
<path opacity="0.2" d="M605.944 79.0359C609.715 79.0359 612.773 75.9785 612.773 72.2069C612.773 68.4354 609.715 65.3779 605.944 65.3779C602.172 65.3779 599.115 68.4354 599.115 72.2069C599.115 75.9785 602.172 79.0359 605.944 79.0359Z" fill="#F5F5F5"/>
<path d="M605.944 76.6784C608.414 76.6784 610.416 74.6763 610.416 72.2066C610.416 69.737 608.414 67.7349 605.944 67.7349C603.474 67.7349 601.472 69.737 601.472 72.2066C601.472 74.6763 603.474 76.6784 605.944 76.6784Z" fill="#6C63FF"/>
<path opacity="0.25" d="M605.944 76.6784C608.414 76.6784 610.416 74.6763 610.416 72.2066C610.416 69.737 608.414 67.7349 605.944 67.7349C603.474 67.7349 601.472 69.737 601.472 72.2066C601.472 74.6763 603.474 76.6784 605.944 76.6784Z" fill="black"/>
<path d="M590.166 57.1378C590.166 57.1378 576.513 69.1517 578.395 92.922C578.395 92.922 580.044 95.9824 584.283 92.922C584.283 92.922 580.752 62.7832 604.295 57.1328L590.166 57.1378Z" fill="#6C63FF"/>
<path d="M621.717 57.1378C621.717 57.1378 635.375 69.1517 633.508 92.922C633.508 92.922 631.859 95.9824 627.62 92.922C627.62 92.922 631.15 62.7832 607.608 57.1328L621.717 57.1378Z" fill="#6C63FF"/>
<path d="M614.357 36.6504H595.876C589.536 36.6504 584.397 41.7897 584.397 48.1295C584.397 54.4692 589.536 59.6085 595.876 59.6085H614.357C620.697 59.6085 625.837 54.4692 625.837 48.1295C625.837 41.7897 620.697 36.6504 614.357 36.6504Z" fill="#6C63FF"/>
<path d="M591.187 54.4038L558.854 53.4976C557.592 53.4627 556.393 52.9366 555.512 52.0312C554.632 51.1257 554.139 49.9124 554.14 48.6494V47.4114C554.14 46.1633 554.621 44.9633 555.483 44.0612C556.346 43.159 557.523 42.6243 558.77 42.5682L591.102 41.1172C591.757 41.0878 592.41 41.1912 593.024 41.4213C593.637 41.6515 594.197 42.0035 594.671 42.4561C595.144 42.9087 595.521 43.4526 595.778 44.0549C596.036 44.6572 596.168 45.3054 596.169 45.9604V49.5606C596.168 50.2083 596.038 50.8493 595.786 51.4458C595.533 52.0423 595.164 52.5822 594.7 53.0337C594.235 53.4852 593.685 53.839 593.082 54.0743C592.479 54.3096 591.834 54.4217 591.187 54.4038V54.4038Z" fill="#6C63FF"/>
<path d="M620.464 54.4038L652.796 53.4976C654.059 53.4627 655.258 52.9366 656.138 52.0312C657.019 51.1257 657.511 49.9124 657.511 48.6494V47.4114C657.511 46.1633 657.029 44.9633 656.167 44.0612C655.305 43.159 654.127 42.6243 652.881 42.5682L620.548 41.1172C619.894 41.0878 619.24 41.1912 618.627 41.4213C618.014 41.6515 617.453 42.0035 616.98 42.4561C616.506 42.9087 616.13 43.4526 615.872 44.0549C615.615 44.6572 615.482 45.3054 615.482 45.9604V49.5606C615.482 50.2083 615.613 50.8493 615.865 51.4458C616.117 52.0423 616.486 52.5822 616.951 53.0337C617.415 53.4852 617.965 53.839 618.569 54.0743C619.172 54.3096 619.816 54.4217 620.464 54.4038V54.4038Z" fill="#6C63FF"/>
<path opacity="0.2" d="M591.187 54.4038L558.854 53.4976C557.592 53.4627 556.393 52.9366 555.512 52.0312C554.632 51.1257 554.139 49.9124 554.14 48.6494V47.4114C554.14 46.1633 554.621 44.9633 555.483 44.0612C556.346 43.159 557.523 42.6243 558.77 42.5682L591.102 41.1172C591.757 41.0878 592.41 41.1912 593.024 41.4213C593.637 41.6515 594.197 42.0035 594.671 42.4561C595.144 42.9087 595.521 43.4526 595.778 44.0549C596.036 44.6572 596.168 45.3054 596.169 45.9604V49.5606C596.168 50.2083 596.038 50.8493 595.786 51.4458C595.533 52.0423 595.164 52.5822 594.7 53.0337C594.235 53.4852 593.685 53.839 593.082 54.0743C592.479 54.3096 591.834 54.4217 591.187 54.4038V54.4038Z" fill="#F5F5F5"/>
<path opacity="0.2" d="M620.464 54.4038L652.796 53.4976C654.059 53.4627 655.258 52.9366 656.138 52.0312C657.019 51.1257 657.511 49.9124 657.511 48.6494V47.4114C657.511 46.1633 657.029 44.9633 656.167 44.0612C655.305 43.159 654.127 42.6243 652.881 42.5682L620.548 41.1172C619.894 41.0878 619.24 41.1912 618.627 41.4213C618.014 41.6515 617.453 42.0035 616.98 42.4561C616.506 42.9087 616.13 43.4526 615.872 44.0549C615.615 44.6572 615.482 45.3054 615.482 45.9604V49.5606C615.482 50.2083 615.613 50.8493 615.865 51.4458C616.117 52.0423 616.486 52.5822 616.951 53.0337C617.415 53.4852 617.965 53.839 618.569 54.0743C619.172 54.3096 619.816 54.4217 620.464 54.4038Z" fill="#F5F5F5"/>
<path d="M551.203 40.4189H549.786C546.731 40.4189 544.255 42.8955 544.255 45.9505V48.7782C544.255 51.8332 546.731 54.3097 549.786 54.3097H551.203C554.258 54.3097 556.734 51.8332 556.734 48.7782V45.9505C556.734 42.8955 554.258 40.4189 551.203 40.4189Z" fill="#6C63FF"/>
<path d="M662.101 40.4189H660.685C657.63 40.4189 655.153 42.8955 655.153 45.9505V48.7782C655.153 51.8332 657.63 54.3097 660.685 54.3097H662.101C665.156 54.3097 667.633 51.8332 667.633 48.7782V45.9505C667.633 42.8955 665.156 40.4189 662.101 40.4189Z" fill="#6C63FF"/>
<path d="M552.495 37.3584H548.727C547.687 37.3584 546.845 38.2009 546.845 39.2402V39.2452C546.845 40.2845 547.687 41.127 548.727 41.127H552.495C553.534 41.127 554.377 40.2845 554.377 39.2452V39.2402C554.377 38.2009 553.534 37.3584 552.495 37.3584Z" fill="#6C63FF"/>
<path d="M553.204 33.8277C553.204 32.266 551.939 31 550.378 31C548.818 31 547.553 32.266 547.553 33.8277V36.6504C547.553 38.2121 548.818 39.4781 550.378 39.4781C551.939 39.4781 553.204 38.2121 553.204 36.6504V33.8277Z" fill="#6C63FF"/>
<path d="M535.777 37.3582C544.491 37.3582 551.555 36.4092 551.555 35.2387C551.555 34.0681 544.491 33.1191 535.777 33.1191C527.063 33.1191 520 34.0681 520 35.2387C520 36.4092 527.063 37.3582 535.777 37.3582Z" fill="#6C63FF"/>
<path d="M564.975 37.3582C573.688 37.3582 580.752 36.4092 580.752 35.2387C580.752 34.0681 573.688 33.1191 564.975 33.1191C556.261 33.1191 549.197 34.0681 549.197 35.2387C549.197 36.4092 556.261 37.3582 564.975 37.3582Z" fill="#6C63FF"/>
<path d="M663.626 37.3584H659.858C658.819 37.3584 657.976 38.2009 657.976 39.2402V39.2452C657.976 40.2845 658.819 41.127 659.858 41.127H663.626C664.666 41.127 665.508 40.2845 665.508 39.2452V39.2402C665.508 38.2009 664.666 37.3584 663.626 37.3584Z" fill="#6C63FF"/>
<path d="M664.335 33.8277C664.335 32.266 663.07 31 661.51 31C659.949 31 658.685 32.266 658.685 33.8277V36.6504C658.685 38.2121 659.949 39.4781 661.51 39.4781C663.07 39.4781 664.335 38.2121 664.335 36.6504V33.8277Z" fill="#6C63FF"/>
<path d="M646.913 37.3582C655.626 37.3582 662.69 36.4092 662.69 35.2387C662.69 34.0681 655.626 33.1191 646.913 33.1191C638.199 33.1191 631.135 34.0681 631.135 35.2387C631.135 36.4092 638.199 37.3582 646.913 37.3582Z" fill="#6C63FF"/>
<path d="M676.106 37.3582C684.819 37.3582 691.883 36.4092 691.883 35.2387C691.883 34.0681 684.819 33.1191 676.106 33.1191C667.392 33.1191 660.328 34.0681 660.328 35.2387C660.328 36.4092 667.392 37.3582 676.106 37.3582Z" fill="#6C63FF"/>
<path opacity="0.2" d="M535.777 37.3582C544.491 37.3582 551.555 36.4092 551.555 35.2387C551.555 34.0681 544.491 33.1191 535.777 33.1191C527.063 33.1191 520 34.0681 520 35.2387C520 36.4092 527.063 37.3582 535.777 37.3582Z" fill="#F5F5F5"/>
<path opacity="0.2" d="M564.975 37.3582C573.688 37.3582 580.752 36.4092 580.752 35.2387C580.752 34.0681 573.688 33.1191 564.975 33.1191C556.261 33.1191 549.197 34.0681 549.197 35.2387C549.197 36.4092 556.261 37.3582 564.975 37.3582Z" fill="#F5F5F5"/>
<path opacity="0.2" d="M646.913 37.3582C655.626 37.3582 662.69 36.4092 662.69 35.2387C662.69 34.0681 655.626 33.1191 646.913 33.1191C638.199 33.1191 631.135 34.0681 631.135 35.2387C631.135 36.4092 638.199 37.3582 646.913 37.3582Z" fill="#F5F5F5"/>
<path opacity="0.2" d="M676.106 37.3582C684.819 37.3582 691.883 36.4092 691.883 35.2387C691.883 34.0681 684.819 33.1191 676.106 33.1191C667.392 33.1191 660.328 34.0681 660.328 35.2387C660.328 36.4092 667.392 37.3582 676.106 37.3582Z" fill="#F5F5F5"/>
<path d="M611.594 55.2505H600.293C598.212 55.2505 596.525 56.9366 596.525 59.0166C596.525 61.0966 598.212 62.7827 600.293 62.7827H611.594C613.676 62.7827 615.363 61.0966 615.363 59.0166C615.363 56.9366 613.676 55.2505 611.594 55.2505Z" fill="#6C63FF"/>
<path opacity="0.2" d="M611.594 55.2505H600.293C598.212 55.2505 596.525 56.9366 596.525 59.0166C596.525 61.0966 598.212 62.7827 600.293 62.7827H611.594C613.676 62.7827 615.363 61.0966 615.363 59.0166C615.363 56.9366 613.676 55.2505 611.594 55.2505Z" fill="#F5F5F5"/>
<path d="M623.043 94.3872H581.094V136.337H623.043H633.76V94.3872H623.043Z" fill="#67647E"/>
<path opacity="0.25" d="M633.765 94.3872H623.043V136.337H633.765V94.3872Z" fill="black"/>
<rect width="7.0836" height="14.3048" transform="matrix(0.955169 0.296061 -0.22566 0.974206 613.414 113.515)" fill="#3F3D56"/>
<ellipse rx="3.5418" ry="5.36429" transform="matrix(0.955169 0.296061 -0.22566 0.974206 616.998 113.692)" fill="#3F3D56"/>
<rect width="3.5418" height="11.6226" transform="matrix(0.955169 0.296061 -0.22566 0.974206 617.93 101.845)" fill="#3F3D56"/>
<rect width="7.0836" height="8.94048" transform="matrix(0.955169 0.296061 -0.22566 0.974206 613.211 114.385)" fill="#DB1E1E"/>
<rect width="3.5418" height="1.7881" transform="matrix(0.955169 0.296061 -0.22566 0.974206 617.526 103.587)" fill="#DB1E1E"/>
<rect width="7.0836" height="14.3048" transform="matrix(0.955169 0.296061 -0.22566 0.974206 592.063 113.515)" fill="#3F3D56"/>
<ellipse rx="3.5418" ry="5.36429" transform="matrix(0.955169 0.296061 -0.22566 0.974206 595.648 113.692)" fill="#3F3D56"/>
<rect width="3.5418" height="11.6226" transform="matrix(0.955169 0.296061 -0.22566 0.974206 596.579 101.845)" fill="#3F3D56"/>
<rect width="7.0836" height="8.94048" transform="matrix(0.955169 0.296061 -0.22566 0.974206 591.861 114.385)" fill="#DB1E1E"/>
<rect width="3.5418" height="1.7881" transform="matrix(0.955169 0.296061 -0.22566 0.974206 596.175 103.587)" fill="#DB1E1E"/>
<rect width="7.0836" height="14.3048" transform="matrix(0.955169 0.296061 -0.22566 0.974206 603.043 113.515)" fill="#3F3D56"/>
<ellipse rx="3.5418" ry="5.36429" transform="matrix(0.955169 0.296061 -0.22566 0.974206 606.628 113.692)" fill="#3F3D56"/>
<rect width="3.5418" height="11.6226" transform="matrix(0.955169 0.296061 -0.22566 0.974206 607.559 101.845)" fill="#3F3D56"/>
<rect width="7.0836" height="8.94048" transform="matrix(0.955169 0.296061 -0.22566 0.974206 602.841 114.385)" fill="#DB1E1E"/>
<rect width="3.5418" height="1.7881" transform="matrix(0.955169 0.296061 -0.22566 0.974206 607.155 103.587)" fill="#DB1E1E"/>
<path opacity="0.1" d="M943.488 320.675C958.669 320.675 970.976 318.597 970.976 316.034C970.976 313.472 958.669 311.394 943.488 311.394C928.306 311.394 916 313.472 916 316.034C916 318.597 928.306 320.675 943.488 320.675Z" fill="black"/>
<path opacity="0.1" d="M955.317 118.52L955.277 118.299L951.496 116.296H950.903L950.676 115.861H942.885L941.078 116.296H934.423L932.62 118.4L932.602 118.529C932.485 119.282 929.878 136.975 936.757 142.605L939.626 143.938H941.481L941.118 143.214L942.731 143.938H947.952L948.045 143.799L951.143 142.639L951.223 142.547C951.503 142.215 958.087 134.214 955.317 118.52Z" fill="#6C63FF"/>
<path d="M945.956 136.106H942.885V144.091H945.956V136.106Z" fill="#E6E6E6"/>
<path d="M947.03 154.38H941.502V307.944H947.03V154.38Z" fill="#3F3D56"/>
<path d="M948.413 151.77H940.12V156.991H948.413V151.77Z" fill="#3F3D56"/>
<path d="M937.049 142.249L942.27 147.777L940.12 151.77L944.42 152.691L948.413 151.77L945.956 147.47L950.87 142.249H937.049Z" fill="#3F3D56"/>
<path d="M933.056 120.6L930.599 118.143L932.442 116.3H955.784L957.626 118.45L954.862 120.6C954.862 120.6 940.12 119.985 933.056 120.6Z" fill="#3F3D56"/>
<path d="M955.317 118.52L955.277 118.299L951.496 116.297L949.77 115.381L940.08 114.758L934.647 116.035L934.423 116.297L932.62 118.4L932.602 118.529C932.485 119.282 929.878 136.975 936.757 142.605L939.626 143.938L942.04 145.059L941.481 143.938L940.563 142.105C939.601 136.509 937.488 121.806 938.837 118.735L944.408 116.938L949.353 118.775C949.694 120.983 951.899 136.466 948.035 141.985L947.952 142.105V143.834L951.143 142.639L951.223 142.547C951.503 142.215 958.087 134.214 955.317 118.52ZM950.587 141.862L948.874 142.507V142.39C953.112 136.066 950.342 119.085 950.222 118.36L950.179 118.096L945.332 116.297L944.433 115.962L943.394 116.297L938.198 117.973L938.109 118.13C936.134 121.671 939.522 141.484 939.666 142.326L939.678 142.393L940.044 143.124L937.295 141.856C931.168 136.754 933.268 120.418 933.493 118.8L935.151 116.865L937.565 116.297L940.16 115.685L944.432 115.962L949.512 116.29L949.525 116.297L954.448 118.901C956.887 133.136 951.291 140.953 950.587 141.862V141.862Z" fill="#3F3D56"/>
<path d="M944.42 120.6C949 120.6 952.712 118.675 952.712 116.3C952.712 113.925 949 112 944.42 112C939.84 112 936.127 113.925 936.127 116.3C936.127 118.675 939.84 120.6 944.42 120.6Z" fill="#3F3D56"/>
<path d="M940.12 300.113L935.206 315.776C935.206 315.776 942.884 320.076 953.327 315.776L948.413 300.113H940.12Z" fill="#3F3D56"/>
<path d="M944.42 137.027C945.777 137.027 946.877 135.927 946.877 134.57C946.877 133.213 945.777 132.113 944.42 132.113C943.063 132.113 941.963 133.213 941.963 134.57C941.963 135.927 943.063 137.027 944.42 137.027Z" fill="#6C63FF"/>
<path d="M741.097 223.087H735.201V266.321H741.097V223.087Z" fill="#3F3D56"/>
<path d="M810.663 223.087H804.767V266.321H810.663V223.087Z" fill="#3F3D56"/>
<path d="M880.229 216.405H665.635V226.231H880.229V216.405Z" fill="#E6E6E6"/>
<path d="M880.229 247.455H665.635V257.281H880.229V247.455Z" fill="#E6E6E6"/>
<path d="M880.229 229.375H665.635V235.271H880.229V229.375Z" fill="#E6E6E6"/>
<path d="M880.229 238.416H665.635V244.311H880.229V238.416Z" fill="#E6E6E6"/>
<path d="M671.726 214.637H665.045V266.517H671.726V214.637Z" fill="#3F3D56"/>
<path d="M880.229 214.44H873.547V266.32H880.229V214.44Z" fill="#3F3D56"/>
<path d="M653.451 280.076H646.769V333.921H653.451V280.076Z" fill="#3F3D56"/>
<path d="M675.46 278.111H668.779V306.803H675.46V278.111Z" fill="#3F3D56"/>
<path d="M878.657 278.111H871.975V306.803H878.657V278.111Z" fill="#3F3D56"/>
<path d="M897.522 280.076H890.841V333.921H897.522V280.076Z" fill="#3F3D56"/>
<path d="M897.522 280.076H646.769V287.151H897.522V280.076Z" fill="#3F3D56"/>
<path d="M664.848 264.355L646.769 280.077H897.522L880.229 264.355H664.848Z" fill="#E6E6E6"/>
<path d="M717.243 201.203C718.356 200.411 719.584 199.795 720.884 199.377C729.127 196.31 737.764 194.43 746.537 193.793C754.164 193.252 762.431 193.894 768.389 198.688C769.316 199.368 770.074 200.252 770.606 201.271C771.355 202.888 771.128 204.768 770.885 206.534C770.831 207.219 770.658 207.89 770.375 208.516C769.573 210.042 767.599 210.577 765.885 210.394C764.171 210.211 762.562 209.485 760.871 209.149C759.824 208.967 758.766 208.859 757.704 208.826L747.098 208.252C740.503 207.895 733.821 207.544 727.352 208.875C725.36 209.233 723.436 209.896 721.647 210.841C720.169 211.671 719.174 212.861 717.803 211.329C715.395 208.637 714.061 203.689 717.243 201.203Z" fill="#2F2E41"/>
<path d="M733.678 205.893C733.678 205.893 747.944 199.498 753.355 206.877C758.765 214.255 750.403 211.304 750.403 211.304L741.057 214.255L730.727 212.288L733.678 205.893Z" fill="#F2F2F2"/>
<path d="M734.416 201.22C734.416 201.22 736.384 210.566 734.908 213.025C733.432 215.485 743.27 218.928 743.27 218.928L752.616 214.993C752.616 214.993 750.157 199.744 752.616 196.792L734.416 201.22Z" fill="#FFB9B9"/>
<path opacity="0.1" d="M734.416 201.22C734.416 201.22 736.384 210.566 734.908 213.025C733.432 215.485 743.27 218.928 743.27 218.928L752.616 214.993C752.616 214.993 750.157 199.744 752.616 196.792L734.416 201.22Z" fill="black"/>
<path d="M725.199 313.6C726.606 316.299 727.518 319.222 728.449 322.119C728.463 322.216 728.497 322.308 728.549 322.391C728.601 322.473 728.67 322.544 728.751 322.598C728.833 322.652 728.925 322.688 729.021 322.705C729.117 322.721 729.216 322.716 729.31 322.692L738.06 322.682C739.14 322.681 740.588 322.334 740.577 321.254C740.569 320.495 739.794 320.022 739.217 319.53C737.615 318.163 737.198 315.91 736.535 313.912C735.245 310.062 732.76 306.725 729.442 304.386C728.994 304.035 728.477 303.78 727.926 303.637C727.371 303.556 726.806 303.587 726.264 303.727C724.728 304.037 718.992 305.097 720.076 307.331C720.542 308.293 722.271 309.294 722.996 310.193C723.841 311.253 724.579 312.395 725.199 313.6Z" fill="#575A89"/>
<path d="M755.624 303.453C755.316 304.101 754.973 304.732 754.596 305.344C753.328 307.434 751.832 309.384 750.652 311.525C749.916 312.861 749.296 314.304 749.215 315.827C749.133 317.35 749.67 318.971 750.884 319.893C752.155 320.856 753.896 320.901 755.474 320.676C757.053 320.452 758.622 320 760.212 320.119C759.676 317.085 762.235 314.415 762.875 311.402C763.054 310.556 763.081 309.678 763.322 308.847C763.581 308.087 763.913 307.354 764.312 306.657C765.586 304.176 766.486 301.521 766.984 298.776C767.044 298.444 759.207 298.389 758.471 298.548C756.177 299.044 756.513 301.55 755.624 303.453Z" fill="#575A89"/>
<path d="M695.214 255.796C692.976 259.297 693.492 263.938 695.063 267.784C696.635 271.631 699.136 275.032 700.848 278.818C701.939 281.232 702.705 283.791 703.934 286.138C705.455 289.044 707.677 291.606 708.699 294.723C709.349 296.71 709.499 298.888 710.553 300.694C711.191 301.659 711.918 302.562 712.726 303.389C714.997 305.991 716.702 309.037 717.733 312.334C718.697 309.463 721.583 307.58 724.547 306.959C727.511 306.339 730.582 306.76 733.581 307.184C731.908 304.593 730.219 301.968 729.222 299.05C728.258 296.227 727.973 293.224 727.324 290.312C725.992 284.342 723.146 278.835 720.329 273.406L734.809 272.257C737.172 272.019 739.548 271.931 741.923 271.993C745.66 272.169 749.322 273.085 753.039 273.509C756.757 273.932 760.69 273.822 764.003 272.083C757.668 281.172 754.368 292.032 754.577 303.11C755.992 302.012 757.636 301.246 759.386 300.866C761.137 300.486 762.95 300.502 764.693 300.914C766.437 301.325 768.066 302.121 769.462 303.244C770.858 304.366 771.985 305.787 772.761 307.401C778.436 299.646 777.761 288.851 782.257 280.359C783.182 278.613 784.315 276.986 785.313 275.281C787.287 271.908 788.718 268.251 790.141 264.611C791.399 261.394 792.666 257.815 791.46 254.578C790.959 253.35 790.229 252.228 789.31 251.272C786.716 248.412 783.105 246.296 779.244 246.208C773.317 246.073 768.422 250.466 763.223 253.314C757.099 256.67 749.956 258.003 742.991 257.51C735.85 257.005 729.03 254.667 722.226 252.608C718.823 251.531 715.363 250.638 711.863 249.935C708.946 249.388 706.167 249.994 703.292 250.74C700.162 251.553 697.015 252.976 695.214 255.796Z" fill="#2F2E41"/>
<path d="M757.044 191.873C757.04 195.786 755.485 199.538 752.718 202.305C749.951 205.071 746.199 206.627 742.287 206.63C741.407 206.632 740.53 206.553 739.665 206.394C736.903 205.895 734.341 204.62 732.279 202.716C730.216 200.813 728.74 198.361 728.022 195.648C727.304 192.935 727.374 190.073 728.225 187.399C729.076 184.724 730.672 182.348 732.826 180.549C734.979 178.749 737.601 177.601 740.384 177.239C743.167 176.878 745.996 177.317 748.538 178.505C751.08 179.694 753.231 181.583 754.737 183.951C756.244 186.319 757.044 189.067 757.044 191.873V191.873Z" fill="#FFB9B9"/>
<path d="M733.678 205.892C733.678 205.892 736.384 207.122 737.367 208.106C738.351 209.09 741.303 214.501 746.222 211.057C751.141 207.614 751.633 205.646 753.108 205.646C754.584 205.646 756.552 208.598 756.552 208.598L770.079 249.18C766.433 253.295 762.208 256.858 757.535 259.756C749.665 264.675 740.319 267.134 735.892 265.167C731.465 263.199 723.102 261.723 721.627 257.788C720.151 253.853 717.691 242.047 717.691 242.047L724.578 212.041L733.678 205.892Z" fill="#F2F2F2"/>
<path d="M731.779 246.936C732.851 244.62 733.007 241.998 733.098 239.446C733.243 236.92 733.176 234.386 732.898 231.87C732.462 228.58 731.39 225.41 730.714 222.16C730.12 219.31 729.832 216.405 729.853 213.494C729.863 212.166 729.959 210.768 730.683 209.654C731.188 208.877 731.978 208.275 732.294 207.404C732.912 205.695 731.384 203.906 729.708 203.203C727.715 202.366 725.437 202.422 723.341 202.947C721.244 203.472 719.288 204.438 717.351 205.398C715.952 206.09 714.523 206.805 713.438 207.927C711.911 209.508 711.239 211.708 710.697 213.838C710.263 215.542 709.877 217.319 710.208 219.046C710.744 221.852 713.03 223.961 714.249 226.544C715.665 229.543 715.57 233.038 715.007 236.306C714.444 239.574 713.444 242.769 713.136 246.071C712.828 249.373 713.301 252.923 715.37 255.515C716.213 256.571 718.499 259.074 720.043 258.791C721.255 258.568 723.013 255.9 723.99 255.054C726.811 252.61 730.159 250.436 731.779 246.936Z" fill="#2F2E41"/>
<path d="M757.551 204.289C757.594 207.032 756.385 209.64 754.962 211.987C753.54 214.333 751.87 216.552 750.822 219.088C749.519 222.262 749.253 225.767 750.062 229.101C750.362 230.237 750.725 231.356 751.147 232.452L753.842 239.845C754.205 241.007 754.731 242.112 755.405 243.126C756.014 243.903 756.729 244.59 757.529 245.169C759.576 246.822 761.932 248.051 764.459 248.785C766.995 249.455 769.77 249.413 772.165 248.345C772.425 238.323 774.035 228.382 776.952 218.791C777.491 217.02 778.08 215.156 777.664 213.353C777.199 211.332 775.576 209.816 774.033 208.431C769.316 204.195 764.129 199.745 757.815 199.174C754.16 198.843 757.52 202.305 757.551 204.289Z" fill="#2F2E41"/>
<path d="M725.27 261.479C725.645 262.211 725.877 263.009 726.247 263.743C726.793 264.728 727.468 265.636 728.255 266.442C731.543 270.089 735.564 273.722 740.47 273.942C740.957 273.988 741.449 273.926 741.91 273.761C742.768 273.404 743.275 272.485 743.442 271.57C743.79 269.665 742.949 267.765 742.107 266.021C740.282 262.241 738.229 258.366 734.812 255.928C731.444 253.525 726.932 252.942 723.004 254.152C721.224 254.7 718.273 255.657 720.63 257.281C722.417 258.513 724.234 259.451 725.27 261.479Z" fill="#FFB9B9"/>
<path d="M746.478 213.361C745.877 212.018 745.249 210.637 744.17 209.638C743.149 208.776 741.942 208.164 740.643 207.852C738.961 207.371 737.22 207.122 735.47 207.111C733.387 207.098 730.971 207.656 730.087 209.543C729.384 211.04 729.929 212.814 730.636 214.309C730.938 215.084 731.442 215.764 732.094 216.279C732.993 216.886 734.155 216.867 735.22 217.07C736.89 217.389 738.384 218.284 739.839 219.164L743.488 221.369L749.755 225.157C749.59 225.058 749.649 220.76 749.456 220.055C748.836 217.786 747.44 215.509 746.478 213.361Z" fill="#FFB9B9"/>
<path d="M728.221 321.006C726.755 322.999 727.049 325.847 725.75 327.953C724.624 329.779 722.502 330.736 721.093 332.353C720.644 332.89 720.243 333.467 719.896 334.075C718.589 336.264 717.527 339.069 718.814 341.269C719.849 343.039 722.025 343.73 724.021 344.202C726.543 344.798 729.163 345.275 731.714 344.819C734.266 344.364 736.759 342.802 737.669 340.375C737.847 339.765 738.06 339.165 738.305 338.579C739.688 335.856 744.025 335.827 745.441 333.121C746.431 331.228 745.521 328.939 744.61 327.006L741.831 321.101C740.909 319.141 737.17 320.268 735.22 319.799C732.678 319.186 730.05 318.512 728.221 321.006Z" fill="#2F2E41"/>
<path d="M749.719 315.933C748.54 316.76 747.777 318.057 747.205 319.378C745.829 322.552 745.357 326.031 744.898 329.459C744.714 330.832 744.531 332.238 744.818 333.594C745.411 336.393 747.948 338.455 750.679 339.311C753.41 340.167 756.339 340.035 759.197 339.895C760.115 339.85 761.07 339.795 761.874 339.351C763.311 338.559 763.872 336.697 763.626 335.075C763.38 333.454 762.494 332.011 761.626 330.618C760.759 329.226 759.872 327.784 759.624 326.162C759.206 323.434 760.385 319.431 758.709 316.963C757.03 314.49 751.96 314.362 749.719 315.933Z" fill="#2F2E41"/>
<path d="M756.672 184.183C756.41 183.3 755.831 182.545 755.048 182.062C755.088 181.117 754.972 180.171 754.705 179.264C753.811 176.622 751.694 176.773 749.696 175.605C748.83 175.098 748.883 174.65 748.432 173.818C747.841 172.727 746.955 171.823 745.876 171.21C744.595 170.394 743.242 169.553 741.726 169.45C738.54 169.233 736.097 172.229 733.052 173.191C731.71 173.615 730.268 173.632 728.918 174.033C727.569 174.434 726.223 175.391 726.022 176.784C725.929 177.427 726.093 178.087 725.999 178.73C725.811 180.008 724.69 180.903 723.94 181.954C722.28 184.278 722.47 187.562 723.797 190.091C724.077 190.614 724.397 191.115 724.754 191.589C724.865 192.784 725.208 193.946 725.765 195.01C727.092 197.539 729.376 199.429 731.762 200.999C731.566 200.16 731.448 199.306 731.408 198.445C731.374 198.159 731.411 197.868 731.516 197.599C731.782 197.044 732.484 196.896 733.02 196.592C734.128 195.962 734.563 194.567 734.595 193.292C734.627 192.018 734.357 190.741 734.491 189.472C734.496 189.181 734.562 188.893 734.685 188.629C734.808 188.364 734.985 188.129 735.205 187.937C735.614 187.703 736.082 187.592 736.552 187.616C738.824 187.523 741.198 187.481 743.202 186.407C743.885 186.04 744.521 185.556 745.271 185.36C746.974 184.916 748.715 186.11 749.696 187.57C750.677 189.031 751.167 190.77 752.072 192.279C752.978 193.788 754.542 195.133 756.293 194.955C756.391 194.955 756.489 194.934 756.579 194.894C756.669 194.854 756.75 194.795 756.816 194.722C756.891 194.586 756.925 194.431 756.912 194.277L757.01 187.584C757.091 186.44 756.977 185.289 756.672 184.183Z" fill="#2F2E41"/>
<path d="M709.971 219.189C708.563 221.266 706.939 223.263 706.166 225.65C705.711 227.054 705.569 228.537 705.24 229.974C704.143 234.763 700.974 239.016 700.656 243.919C700.544 245.008 700.704 246.108 701.121 247.121C702.03 249.098 704.206 250.14 706.281 250.796C708.357 251.451 710.585 251.924 712.242 253.335C713.076 254.135 713.832 255.011 714.5 255.954C717.203 259.315 720.839 261.803 724.951 263.104C724.626 260.865 724.473 258.168 726.263 256.784C727.231 256.035 728.525 255.902 729.745 255.797L735.509 255.298C731.665 251.571 727.429 248.271 722.874 245.456C721.281 244.472 719.546 243.433 718.818 241.707C718.363 240.628 718.369 239.419 718.359 238.248C718.319 233.962 717.956 229.684 717.273 225.452C716.798 222.514 716.17 219.602 715.452 216.713C715.25 215.903 714.058 212.265 712.59 213.116C712.245 213.317 711.921 215.624 711.719 216.103C711.239 217.186 710.653 218.22 709.971 219.189Z" fill="#2F2E41"/>
<path d="M776.353 211.34L778.707 216.235C779.841 218.247 780.357 220.549 780.191 222.854L780.33 237.537C780.349 239.499 780.364 241.491 779.847 243.384C779.701 244.016 779.424 244.61 779.036 245.13C778.637 245.578 778.166 245.957 777.644 246.251C773.189 249.035 767.413 250.616 762.707 248.284C761.629 247.71 760.604 247.041 759.644 246.285C757.769 244.896 755.865 243.48 754.462 241.615C752.993 239.663 752.152 237.326 751.164 235.092C749.391 231.084 747.099 227.326 744.349 223.914C743.949 223.419 743.52 222.878 743.505 222.242C743.476 220.955 745.003 220.321 746.194 219.831C748.228 218.995 750.146 217.381 750.486 215.208C754.812 220.88 759.585 226.873 766.41 228.946C766.517 229.014 766.641 229.052 766.768 229.056C766.895 229.06 767.021 229.029 767.132 228.968C767.243 228.906 767.335 228.816 767.399 228.706C767.462 228.596 767.495 228.471 767.494 228.344C767.881 226.723 768.018 225.053 768.302 223.411C768.821 220.42 769.822 217.533 771.266 214.863C772.074 213.365 774.692 207.884 776.353 211.34Z" fill="#2F2E41"/>
<path opacity="0.1" d="M717.947 225.495C718.012 228.969 717.273 232.412 715.79 235.555C715.404 236.25 715.119 236.996 714.945 237.771C714.687 239.425 715.628 241.026 716.704 242.308C718.826 244.83 721.578 246.745 724.68 247.858" fill="black"/>
<path opacity="0.1" d="M769.056 222.566C768.709 223.499 769.024 224.53 769.292 225.489C770.066 228.269 770.428 231.147 770.365 234.033C770.376 234.083 770.374 234.136 770.36 234.185C770.346 234.235 770.32 234.28 770.284 234.317C770.248 234.354 770.203 234.382 770.153 234.397C770.104 234.413 770.052 234.415 770.001 234.405C768.866 234.475 767.566 234.482 766.795 233.645" fill="black"/>
<rect x="326.546" y="264.242" width="64.6067" height="65.309" rx="15" fill="#6C63FF"/>
<path d="M380.62 288.82C380.62 285.717 383.135 283.202 386.238 283.202H417.839C420.941 283.202 423.457 285.717 423.457 288.82V288.82V288.82C423.457 291.923 420.941 294.438 417.839 294.438H386.238C383.135 294.438 380.62 291.923 380.62 288.82V288.82Z" fill="#6C63FF"/>
<rect x="412.221" y="292.332" width="24.5787" height="11.236" rx="5.61798" transform="rotate(-90 412.221 292.332)" fill="#6C63FF"/>
<path d="M380.62 288.118C380.62 285.015 383.135 282.5 386.238 282.5H417.839C420.941 282.5 423.457 285.015 423.457 288.118V288.118C423.457 291.221 420.941 293.736 417.839 293.736H386.238C383.135 293.736 380.62 291.221 380.62 288.118V288.118Z" fill="#F5F5F5" fill-opacity="0.2"/>
<rect x="357.445" y="297.247" width="64.6067" height="7.72472" rx="3.86236" transform="rotate(-90 357.445 297.247)" fill="#6C63FF"/>
<path d="M379.027 253.352C383.397 253.352 386.94 245.1 386.94 234.92C386.94 224.741 383.397 216.489 379.027 216.489C374.657 216.489 371.115 224.741 371.115 234.92C371.115 245.1 374.657 253.352 379.027 253.352Z" fill="#6C63FF"/>
<path d="M379.027 247.356C381.975 247.356 384.365 241.789 384.365 234.921C384.365 228.053 381.975 222.486 379.027 222.486C376.079 222.486 373.689 228.053 373.689 234.921C373.689 241.789 376.079 247.356 379.027 247.356Z" fill="#6C63FF"/>
<path opacity="0.2" d="M379.027 247.356C381.975 247.356 384.365 241.789 384.365 234.921C384.365 228.053 381.975 222.486 379.027 222.486C376.079 222.486 373.689 228.053 373.689 234.921C373.689 241.789 376.079 247.356 379.027 247.356Z" fill="#F5F5F5"/>
<path d="M379.027 243.063C380.958 243.063 382.523 239.417 382.523 234.92C382.523 230.423 380.958 226.777 379.027 226.777C377.097 226.777 375.532 230.423 375.532 234.92C375.532 239.417 377.097 243.063 379.027 243.063Z" fill="#6C63FF"/>
<path opacity="0.25" d="M379.027 243.063C380.958 243.063 382.523 239.417 382.523 234.92C382.523 230.423 380.958 226.777 379.027 226.777C377.097 226.777 375.532 230.423 375.532 234.92C375.532 239.417 377.097 243.063 379.027 243.063Z" fill="black"/>
<path d="M342.886 253.352C347.255 253.352 350.798 245.1 350.798 234.92C350.798 224.741 347.255 216.489 342.886 216.489C338.516 216.489 334.973 224.741 334.973 234.92C334.973 245.1 338.516 253.352 342.886 253.352Z" fill="#6C63FF"/>
<path d="M342.886 247.356C345.834 247.356 348.224 241.789 348.224 234.921C348.224 228.053 345.834 222.486 342.886 222.486C339.937 222.486 337.547 228.053 337.547 234.921C337.547 241.789 339.937 247.356 342.886 247.356Z" fill="#6C63FF"/>
<path opacity="0.2" d="M342.886 247.356C345.834 247.356 348.224 241.789 348.224 234.921C348.224 228.053 345.834 222.486 342.886 222.486C339.937 222.486 337.547 228.053 337.547 234.921C337.547 241.789 339.937 247.356 342.886 247.356Z" fill="#F5F5F5"/>
<path d="M342.886 243.063C344.816 243.063 346.381 239.417 346.381 234.92C346.381 230.423 344.816 226.777 342.886 226.777C340.955 226.777 339.39 230.423 339.39 234.92C339.39 239.417 340.955 243.063 342.886 243.063Z" fill="#6C63FF"/>
<path opacity="0.25" d="M342.886 243.063C344.816 243.063 346.381 239.417 346.381 234.92C346.381 230.423 344.816 226.777 342.886 226.777C340.955 226.777 339.39 230.423 339.39 234.92C339.39 239.417 340.955 243.063 342.886 243.063Z" fill="black"/>
<rect x="349.72" y="231.938" width="23.8764" height="7.02247" fill="#6C63FF"/>
<rect x="396.771" y="267.051" width="46.3483" height="6.32022" rx="3.16011" fill="#67647E"/>
<rect width="9.27306" height="18.7262" transform="matrix(1 0 0.0728813 0.997341 415.522 248.983)" fill="#3F3D56"/>
<ellipse rx="4.63653" ry="7.02233" transform="matrix(1 0 0.0728813 0.997341 420.073 247.815)" fill="#3F3D56"/>
<rect width="4.63653" height="15.2151" transform="matrix(1 0 0.0728813 0.997341 416.646 232.64)" fill="#3F3D56"/>
<rect width="9.27306" height="11.7039" transform="matrix(1 0 0.0728813 0.997341 415.607 250.149)" fill="#DB1E1E"/>
<rect width="4.63653" height="2.34078" transform="matrix(1 0 0.0728813 0.997341 416.817 234.975)" fill="#DB1E1E"/>
<rect x="360.556" y="309.888" width="8.02568" height="8.02568" fill="#2F2E41"/>
<rect x="371.591" y="309.888" width="8.02568" height="8.02568" fill="#2F2E41"/>
<rect x="360.556" y="336.974" width="8.02568" height="8.02568" fill="#2F2E41"/>
<rect x="371.591" y="336.974" width="8.02568" height="8.02568" fill="#2F2E41"/>
<rect x="382.125" y="312.396" width="8.02568" height="8.02568" fill="#2F2E41"/>
<rect x="385.134" y="323.431" width="8.02568" height="8.02568" fill="#2F2E41"/>
<rect x="382.125" y="334.466" width="8.02568" height="8.02568" fill="#2F2E41"/>
<rect width="8.02568" height="8.02568" transform="matrix(-1 0 0 1 357.044 309.888)" fill="#2F2E41"/>
<rect width="8.02568" height="8.02568" transform="matrix(-1 0 0 1 346.009 309.888)" fill="#2F2E41"/>
<rect width="8.02568" height="8.02568" transform="matrix(-1 0 0 1 357.044 336.974)" fill="#2F2E41"/>
<rect width="8.02568" height="8.02568" transform="matrix(-1 0 0 1 346.009 336.974)" fill="#2F2E41"/>
<rect width="8.02568" height="8.02568" transform="matrix(-1 0 0 1 335.475 312.396)" fill="#2F2E41"/>
<rect width="8.02568" height="8.02568" transform="matrix(-1 0 0 1 332.466 323.431)" fill="#2F2E41"/>
<rect width="8.02568" height="8.02568" transform="matrix(-1 0 0 1 335.475 334.466)" fill="#2F2E41"/>
<circle cx="371.089" cy="327.444" r="8.52729" fill="#67647E"/>
<circle cx="346.511" cy="327.444" r="8.52729" fill="#67647E"/>
<rect x="417.838" y="151.18" width="126.404" height="49.1573" rx="15" fill="#E8E7FF"/>
<mask id="path-141-inside-1" fill="white">
<path d="M405.198 212.978L417.839 184.888L433.288 200.337L405.198 212.978Z"/>
</mask>
<path d="M417.839 184.888L488.549 114.177L386.101 11.7291L326.647 143.851L417.839 184.888ZM405.198 212.978L314.006 171.941L205.819 412.357L446.235 304.17L405.198 212.978ZM433.288 200.337L474.325 291.529L606.447 232.074L503.999 129.626L433.288 200.337ZM326.647 143.851L314.006 171.941L496.39 254.014L509.031 225.924L326.647 143.851ZM446.235 304.17L474.325 291.529L392.252 109.145L364.162 121.785L446.235 304.17ZM503.999 129.626L488.549 114.177L347.128 255.598L362.577 271.048L503.999 129.626Z" fill="#E8E7FF" mask="url(#path-141-inside-1)"/>
<path d="M446.572 177.638L446.777 179.044L447.078 177.777L449.187 170.336H450.374L452.432 177.777L452.725 179.066L452.952 177.631L454.607 170.336H456.021L453.435 181H452.153L449.956 173.229L449.788 172.416L449.619 173.229L447.341 181H446.06L443.481 170.336H444.888L446.572 177.638ZM458.73 174.035C459.331 173.297 460.112 172.929 461.074 172.929C462.749 172.929 463.594 173.874 463.608 175.763V181H462.253V175.756C462.249 175.185 462.117 174.762 461.858 174.489C461.604 174.215 461.206 174.079 460.664 174.079C460.225 174.079 459.839 174.196 459.507 174.43C459.175 174.665 458.916 174.972 458.73 175.353V181H457.375V169.75H458.73V174.035ZM467.109 181H465.754V173.075H467.109V181ZM465.645 170.973C465.645 170.753 465.71 170.568 465.842 170.417C465.979 170.265 466.179 170.189 466.443 170.189C466.707 170.189 466.907 170.265 467.043 170.417C467.18 170.568 467.249 170.753 467.249 170.973C467.249 171.193 467.18 171.376 467.043 171.522C466.907 171.669 466.707 171.742 466.443 171.742C466.179 171.742 465.979 171.669 465.842 171.522C465.71 171.376 465.645 171.193 465.645 170.973ZM472.463 180.041C472.947 180.041 473.369 179.894 473.73 179.601C474.092 179.308 474.292 178.942 474.331 178.502H475.613C475.588 178.957 475.432 179.389 475.144 179.799C474.856 180.209 474.47 180.536 473.987 180.78C473.508 181.024 473 181.146 472.463 181.146C471.384 181.146 470.525 180.788 469.885 180.07C469.25 179.347 468.933 178.361 468.933 177.111V176.884C468.933 176.112 469.075 175.426 469.358 174.826C469.641 174.225 470.046 173.759 470.574 173.427C471.106 173.095 471.733 172.929 472.456 172.929C473.345 172.929 474.082 173.195 474.668 173.727C475.259 174.259 475.574 174.95 475.613 175.8H474.331C474.292 175.287 474.097 174.867 473.745 174.54C473.398 174.208 472.969 174.042 472.456 174.042C471.768 174.042 471.233 174.291 470.852 174.789C470.476 175.282 470.288 175.998 470.288 176.935V177.191C470.288 178.104 470.476 178.808 470.852 179.301C471.228 179.794 471.765 180.041 472.463 180.041ZM478.491 174.035C479.092 173.297 479.873 172.929 480.835 172.929C482.51 172.929 483.354 173.874 483.369 175.763V181H482.014V175.756C482.009 175.185 481.877 174.762 481.619 174.489C481.365 174.215 480.967 174.079 480.425 174.079C479.985 174.079 479.6 174.196 479.268 174.43C478.936 174.665 478.677 174.972 478.491 175.353V181H477.136V169.75H478.491V174.035ZM488.76 176.964C488.76 176.188 488.911 175.49 489.214 174.87C489.521 174.25 489.946 173.771 490.488 173.434C491.035 173.097 491.658 172.929 492.356 172.929C493.435 172.929 494.307 173.302 494.971 174.049C495.64 174.796 495.974 175.79 495.974 177.03V177.125C495.974 177.897 495.825 178.59 495.527 179.206C495.234 179.816 494.812 180.292 494.26 180.634C493.713 180.976 493.083 181.146 492.371 181.146C491.296 181.146 490.425 180.773 489.756 180.026C489.092 179.279 488.76 178.29 488.76 177.06V176.964ZM490.122 177.125C490.122 178.004 490.325 178.71 490.73 179.242C491.14 179.774 491.687 180.041 492.371 180.041C493.059 180.041 493.606 179.772 494.011 179.235C494.417 178.693 494.619 177.936 494.619 176.964C494.619 176.095 494.412 175.392 493.997 174.855C493.586 174.313 493.04 174.042 492.356 174.042C491.687 174.042 491.147 174.308 490.737 174.84C490.327 175.373 490.122 176.134 490.122 177.125ZM498.955 173.075L498.999 174.071C499.604 173.31 500.396 172.929 501.372 172.929C503.047 172.929 503.892 173.874 503.906 175.763V181H502.551V175.756C502.546 175.185 502.415 174.762 502.156 174.489C501.902 174.215 501.504 174.079 500.962 174.079C500.522 174.079 500.137 174.196 499.805 174.43C499.473 174.665 499.214 174.972 499.028 175.353V181H497.673V173.075H498.955ZM509.238 181.146C508.164 181.146 507.29 180.795 506.616 180.092C505.942 179.384 505.605 178.439 505.605 177.257V177.008C505.605 176.222 505.754 175.521 506.052 174.906C506.355 174.286 506.775 173.803 507.312 173.456C507.854 173.104 508.44 172.929 509.07 172.929C510.1 172.929 510.901 173.268 511.472 173.947C512.043 174.625 512.329 175.597 512.329 176.862V177.426H506.96C506.98 178.207 507.207 178.839 507.642 179.323C508.081 179.801 508.638 180.041 509.312 180.041C509.79 180.041 510.195 179.943 510.527 179.748C510.859 179.552 511.15 179.293 511.399 178.971L512.227 179.616C511.562 180.636 510.566 181.146 509.238 181.146ZM509.07 174.042C508.523 174.042 508.064 174.242 507.693 174.643C507.322 175.038 507.092 175.595 507.004 176.312H510.974V176.21C510.935 175.521 510.75 174.989 510.417 174.613C510.085 174.232 509.636 174.042 509.07 174.042ZM515.493 177.997C515.503 177.416 515.569 176.957 515.691 176.62C515.813 176.283 516.062 175.91 516.438 175.5L517.397 174.511C517.808 174.047 518.013 173.549 518.013 173.017C518.013 172.504 517.878 172.104 517.61 171.815C517.341 171.522 516.951 171.376 516.438 171.376C515.94 171.376 515.54 171.508 515.237 171.771C514.934 172.035 514.783 172.389 514.783 172.833H513.428C513.438 172.042 513.718 171.405 514.27 170.922C514.827 170.434 515.549 170.189 516.438 170.189C517.361 170.189 518.079 170.438 518.591 170.937C519.109 171.43 519.368 172.108 519.368 172.973C519.368 173.827 518.972 174.669 518.181 175.5L517.383 176.291C517.026 176.686 516.848 177.255 516.848 177.997H515.493ZM515.435 180.319C515.435 180.099 515.5 179.916 515.632 179.77C515.769 179.618 515.969 179.542 516.233 179.542C516.497 179.542 516.697 179.618 516.833 179.77C516.97 179.916 517.039 180.099 517.039 180.319C517.039 180.539 516.97 180.722 516.833 180.868C516.697 181.01 516.497 181.081 516.233 181.081C515.969 181.081 515.769 181.01 515.632 180.868C515.5 180.722 515.435 180.539 515.435 180.319Z" fill="#2F2E41"/>
<rect x="774.578" y="118.876" width="126.404" height="49.1573" rx="15" fill="#E8E7FF"/>
<mask id="path-145-inside-2" fill="white">
<path d="M761.938 180.674L774.578 152.584L790.028 168.034L761.938 180.674Z"/>
</mask>
<path d="M774.578 152.584L845.289 81.8738L742.841 -20.5741L683.386 111.548L774.578 152.584ZM761.938 180.674L670.746 139.638L562.559 380.054L802.974 271.867L761.938 180.674ZM790.028 168.034L831.064 259.226L963.186 199.771L860.739 97.3232L790.028 168.034ZM683.386 111.548L670.746 139.638L853.13 221.711L865.771 193.621L683.386 111.548ZM802.974 271.867L831.064 259.226L748.991 76.8418L720.902 89.4822L802.974 271.867ZM860.739 97.3232L845.289 81.8738L703.868 223.295L719.317 238.745L860.739 97.3232Z" fill="#E8E7FF" mask="url(#path-145-inside-2)"/>
<path d="M829.725 143.718L832.508 138.364H834.105L830.428 145.051V149.028H829.022V145.051L825.345 138.364H826.957L829.725 143.718ZM838.075 149.175C837 149.175 836.126 148.823 835.453 148.12C834.779 147.412 834.442 146.467 834.442 145.286V145.037C834.442 144.25 834.591 143.55 834.889 142.935C835.191 142.314 835.611 141.831 836.148 141.484C836.69 141.133 837.276 140.957 837.906 140.957C838.937 140.957 839.737 141.296 840.309 141.975C840.88 142.654 841.166 143.625 841.166 144.89V145.454H835.797C835.816 146.235 836.043 146.868 836.478 147.351C836.917 147.83 837.474 148.069 838.148 148.069C838.626 148.069 839.032 147.971 839.364 147.776C839.696 147.581 839.986 147.322 840.235 147L841.063 147.644C840.399 148.665 839.403 149.175 838.075 149.175ZM837.906 142.07C837.359 142.07 836.9 142.271 836.529 142.671C836.158 143.066 835.929 143.623 835.841 144.341H839.811V144.238C839.771 143.55 839.586 143.018 839.254 142.642C838.922 142.261 838.473 142.07 837.906 142.07ZM847.354 146.926C847.354 146.56 847.215 146.277 846.937 146.077C846.664 145.872 846.183 145.696 845.494 145.549C844.811 145.403 844.266 145.227 843.861 145.022C843.46 144.817 843.163 144.573 842.967 144.29C842.777 144.006 842.682 143.669 842.682 143.279C842.682 142.629 842.955 142.08 843.502 141.631C844.054 141.182 844.757 140.957 845.611 140.957C846.51 140.957 847.237 141.189 847.794 141.653C848.355 142.117 848.636 142.71 848.636 143.433H847.274C847.274 143.062 847.115 142.742 846.798 142.473C846.485 142.205 846.09 142.07 845.611 142.07C845.118 142.07 844.732 142.178 844.454 142.393C844.176 142.607 844.037 142.888 844.037 143.235C844.037 143.562 844.166 143.809 844.425 143.975C844.684 144.141 845.15 144.299 845.824 144.451C846.502 144.602 847.052 144.783 847.472 144.993C847.892 145.203 848.202 145.457 848.402 145.754C848.607 146.047 848.709 146.406 848.709 146.831C848.709 147.539 848.426 148.108 847.86 148.538C847.293 148.962 846.559 149.175 845.655 149.175C845.021 149.175 844.459 149.062 843.971 148.838C843.482 148.613 843.099 148.301 842.821 147.9C842.547 147.495 842.411 147.058 842.411 146.589H843.766C843.79 147.043 843.971 147.405 844.308 147.673C844.649 147.937 845.099 148.069 845.655 148.069C846.168 148.069 846.578 147.966 846.886 147.761C847.198 147.551 847.354 147.273 847.354 146.926Z" fill="#2F2E41"/>
<path d="M61.5729 224C61.5729 224 75.9296 238.357 67.8272 259.663C59.7247 280.968 81.7255 316.402 81.7255 316.402L81.0528 316.291C51.5632 311.116 36.9107 277.361 53.3078 252.307C59.3995 242.985 64.4043 232.058 61.5729 224Z" fill="#6C63FF"/>
<path d="M61.5729 224C61.5729 224 69.7049 241.602 61.5729 255.959C53.4409 270.316 60.1831 310.613 81.7181 316.402" stroke="#535461" stroke-miterlimit="10"/>
<path d="M36.0015 282.07C36.0015 282.07 52.3838 279.46 53.8771 294.142C55.3704 308.824 85.385 310.857 85.385 310.857L84.8231 311.234C60.0426 327.498 36.3563 321.584 39.927 299.998C41.2577 291.969 41.1394 283.904 36.0015 282.07Z" fill="#6C63FF"/>
<path opacity="0.2" d="M36.0015 282.07C36.0015 282.07 52.3838 279.46 53.8771 294.142C55.3704 308.824 85.385 310.857 85.385 310.857L84.8231 311.234C60.0426 327.498 36.3563 321.584 39.927 299.998C41.2577 291.969 41.1394 283.904 36.0015 282.07Z" fill="#F5F5F5"/>
<path d="M36.0015 282.07C36.0015 282.07 48.717 284.865 47.6746 296.427C46.6322 307.989 66.563 321.851 85.3776 310.865" stroke="#535461" stroke-miterlimit="10"/>
<path d="M98.6252 313.659C98.6252 313.659 88.3198 311.597 85.577 308.854C82.8343 306.111 70.4663 301.299 69.0912 304.736C67.7162 308.174 50.5428 319.847 62.2234 321.91C73.9039 323.972 89.7022 324.66 93.1324 323.285C96.5626 321.91 98.6252 313.659 98.6252 313.659Z" fill="#A8A8A8"/>
<path opacity="0.2" d="M62.2163 320.623C73.8968 322.686 89.6951 323.373 93.1253 321.998C95.7424 320.949 97.561 315.929 98.3002 313.585L98.6403 313.659C98.6403 313.659 96.5778 321.902 93.1475 323.27C89.7173 324.638 73.9264 323.957 62.2385 321.895C58.8674 321.303 57.9063 319.906 58.2686 318.132C58.5347 319.293 59.7397 320.18 62.2163 320.623Z" fill="black"/>
<path d="M335.296 34.2194C339.023 34.2194 342.044 31.1981 342.044 27.4713C342.044 23.7444 339.023 20.7231 335.296 20.7231C331.569 20.7231 328.548 23.7444 328.548 27.4713C328.548 31.1981 331.569 34.2194 335.296 34.2194Z" fill="#6C63FF"/>
<path d="M335.296 32.0243C337.81 32.0243 339.849 29.986 339.849 27.4716C339.849 24.9572 337.81 22.9189 335.296 22.9189C332.781 22.9189 330.743 24.9572 330.743 27.4716C330.743 29.986 332.781 32.0243 335.296 32.0243Z" fill="#6C63FF"/>
<path opacity="0.2" d="M335.296 32.0243C337.81 32.0243 339.849 29.986 339.849 27.4716C339.849 24.9572 337.81 22.9189 335.296 22.9189C332.781 22.9189 330.743 24.9572 330.743 27.4716C330.743 29.986 332.781 32.0243 335.296 32.0243Z" fill="#F5F5F5"/>
<path d="M335.296 30.4521C336.942 30.4521 338.277 29.1174 338.277 27.4709C338.277 25.8245 336.942 24.4897 335.296 24.4897C333.649 24.4897 332.314 25.8245 332.314 27.4709C332.314 29.1174 333.649 30.4521 335.296 30.4521Z" fill="#6C63FF"/>
<path opacity="0.25" d="M335.296 30.4521C336.942 30.4521 338.277 29.1174 338.277 27.4709C338.277 25.8245 336.942 24.4897 335.296 24.4897C333.649 24.4897 332.314 25.8245 332.314 27.4709C332.314 29.1174 333.649 30.4521 335.296 30.4521Z" fill="black"/>
<path d="M323.778 17.4252C323.778 17.4252 314.676 25.4344 315.93 41.2813C315.93 41.2813 317.03 43.3216 319.856 41.2813C319.856 41.2813 317.502 21.1888 333.197 17.4219L323.778 17.4252Z" fill="#6C63FF"/>
<path d="M344.811 17.4252C344.811 17.4252 353.916 25.4344 352.672 41.2813C352.672 41.2813 351.572 43.3216 348.746 41.2813C348.746 41.2813 351.1 21.1888 335.405 17.4219L344.811 17.4252Z" fill="#6C63FF"/>
<path d="M340.905 3.7666H328.584C324.358 3.7666 320.932 7.19284 320.932 11.4193C320.932 15.6458 324.358 19.072 328.584 19.072H340.905C345.132 19.072 348.558 15.6458 348.558 11.4193C348.558 7.19284 345.132 3.7666 340.905 3.7666Z" fill="#6C63FF"/>
<path d="M325.458 15.6027L303.903 14.9985C303.061 14.9753 302.262 14.6246 301.675 14.0209C301.088 13.4173 300.759 12.6084 300.76 11.7664V10.9411C300.76 10.109 301.081 9.30904 301.656 8.70761C302.231 8.10619 303.015 7.74968 303.847 7.71228L325.402 6.74497C325.838 6.72534 326.274 6.79432 326.682 6.94773C327.091 7.10114 327.465 7.3358 327.78 7.63755C328.096 7.93931 328.347 8.30189 328.519 8.70342C328.691 9.10495 328.779 9.53709 328.779 9.97376V12.3739C328.779 12.8057 328.692 13.233 328.524 13.6307C328.356 14.0284 328.109 14.3883 327.8 14.6893C327.49 14.9903 327.124 15.2262 326.721 15.383C326.319 15.5399 325.889 15.6146 325.458 15.6027V15.6027Z" fill="#6C63FF"/>
<path d="M344.976 15.6027L366.531 14.9985C367.372 14.9753 368.172 14.6246 368.759 14.0209C369.346 13.4173 369.674 12.6084 369.674 11.7664V10.9411C369.674 10.109 369.353 9.30904 368.778 8.70761C368.203 8.10619 367.418 7.74968 366.587 7.71228L345.032 6.74497C344.595 6.72534 344.16 6.79432 343.751 6.94773C343.342 7.10114 342.969 7.3358 342.653 7.63755C342.337 7.93931 342.086 8.30189 341.914 8.70342C341.743 9.10495 341.654 9.53709 341.654 9.97376V12.3739C341.655 12.8057 341.741 13.233 341.91 13.6307C342.078 14.0284 342.324 14.3883 342.633 14.6893C342.943 14.9903 343.31 15.2262 343.712 15.383C344.114 15.5399 344.544 15.6146 344.976 15.6027V15.6027Z" fill="#6C63FF"/>
<path opacity="0.2" d="M325.458 15.6027L303.903 14.9985C303.061 14.9753 302.262 14.6246 301.675 14.0209C301.088 13.4173 300.759 12.6084 300.76 11.7664V10.9411C300.76 10.109 301.081 9.30904 301.656 8.70761C302.231 8.10619 303.015 7.74968 303.847 7.71228L325.402 6.74497C325.838 6.72534 326.274 6.79432 326.682 6.94773C327.091 7.10114 327.465 7.3358 327.78 7.63755C328.096 7.93931 328.347 8.30189 328.519 8.70342C328.691 9.10495 328.779 9.53709 328.779 9.97376V12.3739C328.779 12.8057 328.692 13.233 328.524 13.6307C328.356 14.0284 328.109 14.3883 327.8 14.6893C327.49 14.9903 327.124 15.2262 326.721 15.383C326.319 15.5399 325.889 15.6146 325.458 15.6027V15.6027Z" fill="#F5F5F5"/>
<path opacity="0.2" d="M344.976 15.6027L366.531 14.9985C367.372 14.9753 368.172 14.6246 368.759 14.0209C369.346 13.4173 369.674 12.6084 369.674 11.7664V10.9411C369.674 10.109 369.353 9.30904 368.778 8.70761C368.203 8.10619 367.418 7.74968 366.587 7.71228L345.032 6.74497C344.595 6.72534 344.16 6.79432 343.751 6.94773C343.342 7.10114 342.969 7.3358 342.653 7.63755C342.337 7.93931 342.086 8.30189 341.914 8.70342C341.743 9.10495 341.654 9.53709 341.654 9.97376V12.3739C341.655 12.8057 341.741 13.233 341.91 13.6307C342.078 14.0284 342.324 14.3883 342.633 14.6893C342.943 14.9903 343.31 15.2262 343.712 15.383C344.114 15.5399 344.544 15.6146 344.976 15.6027Z" fill="#F5F5F5"/>
<path d="M298.802 6.2793H297.858C295.821 6.2793 294.17 7.93034 294.17 9.96699V11.8521C294.17 13.8888 295.821 15.5398 297.858 15.5398H298.802C300.838 15.5398 302.49 13.8888 302.49 11.8521V9.96699C302.49 7.93034 300.838 6.2793 298.802 6.2793Z" fill="#6C63FF"/>
<path d="M372.734 6.2793H371.79C369.753 6.2793 368.102 7.93034 368.102 9.96699V11.8521C368.102 13.8888 369.753 15.5398 371.79 15.5398H372.734C374.771 15.5398 376.422 13.8888 376.422 11.8521V9.96699C376.422 7.93034 374.771 6.2793 372.734 6.2793Z" fill="#6C63FF"/>
<path d="M299.663 4.23926H297.151C296.458 4.23926 295.896 4.80094 295.896 5.4938V5.4971C295.896 6.18997 296.458 6.75165 297.151 6.75165H299.663C300.356 6.75165 300.918 6.18997 300.918 5.4971V5.4938C300.918 4.80094 300.356 4.23926 299.663 4.23926Z" fill="#6C63FF"/>
<path d="M300.136 1.88512C300.136 0.843996 299.292 0 298.252 0C297.212 0 296.369 0.843996 296.369 1.88512V3.76693C296.369 4.80805 297.212 5.65205 298.252 5.65205C299.292 5.65205 300.136 4.80805 300.136 3.76693V1.88512Z" fill="#6C63FF"/>
<path d="M288.518 4.23911C294.327 4.23911 299.036 3.60648 299.036 2.8261C299.036 2.04571 294.327 1.41309 288.518 1.41309C282.709 1.41309 278 2.04571 278 2.8261C278 3.60648 282.709 4.23911 288.518 4.23911Z" fill="#6C63FF"/>
<path d="M307.983 4.23911C313.792 4.23911 318.502 3.60648 318.502 2.8261C318.502 2.04571 313.792 1.41309 307.983 1.41309C302.174 1.41309 297.465 2.04571 297.465 2.8261C297.465 3.60648 302.174 4.23911 307.983 4.23911Z" fill="#6C63FF"/>
<path d="M373.751 4.23926H371.238C370.546 4.23926 369.984 4.80094 369.984 5.4938V5.4971C369.984 6.18997 370.546 6.75165 371.238 6.75165H373.751C374.444 6.75165 375.005 6.18997 375.005 5.4971V5.4938C375.005 4.80094 374.444 4.23926 373.751 4.23926Z" fill="#6C63FF"/>
<path d="M374.223 1.88512C374.223 0.843996 373.38 0 372.34 0C371.299 0 370.456 0.843996 370.456 1.88512V3.76693C370.456 4.80805 371.299 5.65205 372.34 5.65205C373.38 5.65205 374.223 4.80805 374.223 3.76693V1.88512Z" fill="#6C63FF"/>
<path d="M362.609 4.23911C368.418 4.23911 373.127 3.60648 373.127 2.8261C373.127 2.04571 368.418 1.41309 362.609 1.41309C356.8 1.41309 352.09 2.04571 352.09 2.8261C352.09 3.60648 356.8 4.23911 362.609 4.23911Z" fill="#6C63FF"/>
<path d="M382.071 4.23911C387.88 4.23911 392.589 3.60648 392.589 2.8261C392.589 2.04571 387.88 1.41309 382.071 1.41309C376.261 1.41309 371.552 2.04571 371.552 2.8261C371.552 3.60648 376.261 4.23911 382.071 4.23911Z" fill="#6C63FF"/>
<path opacity="0.2" d="M288.518 4.23911C294.327 4.23911 299.036 3.60648 299.036 2.8261C299.036 2.04571 294.327 1.41309 288.518 1.41309C282.709 1.41309 278 2.04571 278 2.8261C278 3.60648 282.709 4.23911 288.518 4.23911Z" fill="#F5F5F5"/>
<path opacity="0.2" d="M307.983 4.23911C313.792 4.23911 318.502 3.60648 318.502 2.8261C318.502 2.04571 313.792 1.41309 307.983 1.41309C302.174 1.41309 297.465 2.04571 297.465 2.8261C297.465 3.60648 302.174 4.23911 307.983 4.23911Z" fill="#F5F5F5"/>
<path opacity="0.2" d="M362.609 4.23911C368.418 4.23911 373.127 3.60648 373.127 2.8261C373.127 2.04571 368.418 1.41309 362.609 1.41309C356.8 1.41309 352.09 2.04571 352.09 2.8261C352.09 3.60648 356.8 4.23911 362.609 4.23911Z" fill="#F5F5F5"/>
<path opacity="0.2" d="M382.071 4.23911C387.88 4.23911 392.589 3.60648 392.589 2.8261C392.589 2.04571 387.88 1.41309 382.071 1.41309C376.261 1.41309 371.552 2.04571 371.552 2.8261C371.552 3.60648 376.261 4.23911 382.071 4.23911Z" fill="#F5F5F5"/>
<path d="M339.063 16.167H331.529C330.141 16.167 329.017 17.2911 329.017 18.6777C329.017 20.0644 330.141 21.1885 331.529 21.1885H339.063C340.45 21.1885 341.575 20.0644 341.575 18.6777C341.575 17.2911 340.45 16.167 339.063 16.167Z" fill="#6C63FF"/>
<path opacity="0.2" d="M339.063 16.167H331.529C330.141 16.167 329.017 17.2911 329.017 18.6777C329.017 20.0644 330.141 21.1885 331.529 21.1885H339.063C340.45 21.1885 341.575 20.0644 341.575 18.6777C341.575 17.2911 340.45 16.167 339.063 16.167Z" fill="#F5F5F5"/>
<path d="M345.696 42.2583H317.729V70.2247H345.696H352.84V42.2583H345.696Z" fill="#67647E"/>
<path opacity="0.25" d="M352.843 42.2583H345.695V70.2247H352.843V42.2583Z" fill="black"/>
<rect width="4.7224" height="9.53652" transform="matrix(0.955169 0.296061 -0.22566 0.974206 339.276 55.0103)" fill="#3F3D56"/>
<ellipse rx="2.3612" ry="3.57619" transform="matrix(0.955169 0.296061 -0.22566 0.974206 341.666 55.1283)" fill="#3F3D56"/>
<rect width="2.3612" height="7.74842" transform="matrix(0.955169 0.296061 -0.22566 0.974206 342.286 47.23)" fill="#3F3D56"/>
<rect width="4.7224" height="5.96032" transform="matrix(0.955169 0.296061 -0.22566 0.974206 339.141 55.5903)" fill="#DB1E1E"/>
<rect width="2.3612" height="1.19206" transform="matrix(0.955169 0.296061 -0.22566 0.974206 342.018 48.3916)" fill="#DB1E1E"/>
<rect width="4.7224" height="9.53652" transform="matrix(0.955169 0.296061 -0.22566 0.974206 325.042 55.0103)" fill="#3F3D56"/>
<ellipse rx="2.3612" ry="3.57619" transform="matrix(0.955169 0.296061 -0.22566 0.974206 327.432 55.1283)" fill="#3F3D56"/>
<rect width="2.3612" height="7.74842" transform="matrix(0.955169 0.296061 -0.22566 0.974206 328.052 47.23)" fill="#3F3D56"/>
<rect width="4.7224" height="5.96032" transform="matrix(0.955169 0.296061 -0.22566 0.974206 324.907 55.5903)" fill="#DB1E1E"/>
<rect width="2.3612" height="1.19206" transform="matrix(0.955169 0.296061 -0.22566 0.974206 327.784 48.3916)" fill="#DB1E1E"/>
<rect width="4.7224" height="9.53652" transform="matrix(0.955169 0.296061 -0.22566 0.974206 332.362 55.0103)" fill="#3F3D56"/>
<ellipse rx="2.3612" ry="3.57619" transform="matrix(0.955169 0.296061 -0.22566 0.974206 334.752 55.1283)" fill="#3F3D56"/>
<rect width="2.3612" height="7.74842" transform="matrix(0.955169 0.296061 -0.22566 0.974206 335.373 47.23)" fill="#3F3D56"/>
<rect width="4.7224" height="5.96032" transform="matrix(0.955169 0.296061 -0.22566 0.974206 332.227 55.5903)" fill="#DB1E1E"/>
<rect width="2.3612" height="1.19206" transform="matrix(0.955169 0.296061 -0.22566 0.974206 335.104 48.3916)" fill="#DB1E1E"/>
</svg>
